<?xml version="1.0" standalone="no"?>
<!DOCTYPE svg PUBLIC "-//W3C//DTD SVG 1.1//EN" "http://www.w3.org/Graphics/SVG/1.1/DTD/svg11.dtd" >
<svg xmlns="http://www.w3.org/2000/svg" xmlns:xlink="http://www.w3.org/1999/xlink" version="1.1">
<metadata></metadata>
<defs>
<font id="bernino_sanssemibold" horiz-adv-x="1302" >
<font-face units-per-em="2048" ascent="1651" descent="-397" />
<missing-glyph horiz-adv-x="565" />
<glyph horiz-adv-x="0" />
<glyph horiz-adv-x="682" />
<glyph unicode=" "  horiz-adv-x="565" />
<glyph unicode="&#x09;" horiz-adv-x="565" />
<glyph unicode="&#xa0;" horiz-adv-x="565" />
<glyph unicode="!" horiz-adv-x="700" d="M217 1540h291l-29 -1094h-233zM225 0v258h275v-258h-275z" />
<glyph unicode="&#x22;" horiz-adv-x="923" d="M184 1047v550h234l-78 -550h-156zM524 1047v550h234l-78 -550h-156z" />
<glyph unicode="#" horiz-adv-x="1609" d="M152 295l18 190h231l43 439h-231l18 190h232l31 295h223l-31 -295h318l30 295h223l-30 -295h231l-18 -190h-232l-43 -439h232l-19 -190h-233l-29 -295h-223l29 295h-318l-29 -295h-223l29 295h-229zM625 485h317l43 439h-317z" />
<glyph unicode="$" horiz-adv-x="1257" d="M121 1012q0 165 129 257t362 101l13 170h196l-22 -174q74 -5 146 -17t107 -21l35 -9v-205h-16q-125 41 -295 55l-41 -366q50 -15 87.5 -27.5t83 -32t78 -40.5t65.5 -51.5t53.5 -64.5t33.5 -80t13 -99q0 -179 -128.5 -269.5t-358.5 -99.5l-13 -170h-196l20 172 q-84 6 -163.5 20.5t-117.5 25.5l-38 11v209h16q142 -51 328 -69l41 387q-52 17 -88 30t-83.5 33.5t-79.5 41t-66 50t-54.5 62.5t-33.5 76.5t-13 93.5zM362 1030q0 -67 52 -107t151 -71l31 322q-234 -12 -234 -144zM676 233q123 7 177 43.5t54 100.5q0 68 -51 111.5 t-147 80.5z" />
<glyph unicode="%" horiz-adv-x="1822" d="M115 1077q0 159 104.5 259t261.5 100q156 0 260.5 -100t104.5 -259q0 -157 -104.5 -256.5t-260.5 -99.5q-157 0 -261.5 99t-104.5 257zM209 0v14l639 742l516 653h252v-12l-641 -744l-516 -653h-250zM311 1077q0 -88 47.5 -141t122.5 -53q73 0 120.5 53t47.5 141 q0 89 -47.5 142t-120.5 53q-75 0 -122.5 -53t-47.5 -142zM981 332q0 161 102.5 260.5t259.5 99.5t261 -99.5t104 -258.5q0 -161 -104 -261t-261 -100t-259.5 99.5t-102.5 259.5zM1176 332q0 -87 47 -140t120 -53t120.5 53.5t47.5 141.5q0 86 -47.5 139t-120.5 53t-120 -53 t-47 -141z" />
<glyph unicode="&#x26;" horiz-adv-x="1607" d="M92 373q0 142 82.5 240t241.5 182q-108 108 -158.5 198t-50.5 195q0 169 121 275t329 106q200 0 315 -97.5t115 -248.5q0 -56 -18 -108t-46 -93t-73.5 -83.5t-90.5 -75t-107 -72.5l340 -320q69 151 94 360h246q-31 -287 -177 -495l336 -320v-16h-323l-181 172 q-179 -197 -485 -197q-235 0 -372.5 108t-137.5 290zM375 391q0 -101 77 -162t197 -61q171 0 299 135l-389 361q-89 -66 -136.5 -130t-47.5 -143zM469 1200q0 -69 39.5 -139.5t124.5 -155.5q105 75 163 144t58 155q0 82 -54.5 131t-137.5 49q-85 0 -139 -49.5t-54 -134.5z " />
<glyph unicode="'" horiz-adv-x="604" d="M184 1047v550h254l-73 -550h-181z" />
<glyph unicode="(" horiz-adv-x="739" d="M119 641q0 120 18 238t47 210t63.5 175.5t69.5 142.5t64 103t47 66l18 21h197q-11 -14 -29 -41t-63.5 -119.5t-81 -195.5t-64 -266t-28.5 -334t27.5 -332t66.5 -269.5t78 -192t67 -123.5l27 -39h-197q-7 8 -18.5 22.5t-45.5 64t-65 104t-69 141t-65 177t-45.5 209 t-18.5 238.5z" />
<glyph unicode=")" horiz-adv-x="739" d="M96 -315q11 14 29 41t63.5 119.5t81 195.5t64 266t28.5 334t-27.5 332t-66.5 269.5t-78 192t-66 123.5l-28 39h197q7 -8 18.5 -22.5t46 -64t65.5 -104t68.5 -141t65 -177t46 -209t18.5 -238.5t-18 -238t-47 -210t-64 -175.5t-70 -142.5t-64 -103t-47 -66l-18 -21h-197z " />
<glyph unicode="*" horiz-adv-x="1155" d="M135 1280l60 182l292 -100l-6 309h193l-6 -309l293 100l59 -182l-297 -90l186 -248l-153 -113l-178 254l-179 -254l-153 113l186 248z" />
<glyph unicode="+" horiz-adv-x="1392" d="M156 477v201h424v448h233v-448h424v-201h-424v-448h-233v448h-424z" />
<glyph unicode="," horiz-adv-x="569" d="M82 -303l90 573h270l-159 -573h-201z" />
<glyph unicode="-" horiz-adv-x="905" d="M123 537v208h659v-208h-659z" />
<glyph unicode="." horiz-adv-x="565" d="M147 0v270h279v-270h-279z" />
<glyph unicode="/" horiz-adv-x="929" d="M37 -57l631 1654h225l-631 -1654h-225z" />
<glyph unicode="0" horiz-adv-x="1361" d="M145 698q0 123 13.5 224.5t50.5 199t96 164.5t155.5 107.5t223.5 40.5t223 -41t154 -107t94 -163t49 -196t13 -218q0 -121 -13.5 -222t-50 -198.5t-95.5 -164.5t-155.5 -108t-224.5 -41q-127 0 -223 40.5t-154 106.5t-94 162.5t-49 195t-13 218.5zM428 705 q0 -284 59.5 -408.5t192.5 -124.5q134 0 194 124.5t60 408.5t-60 408t-194 124q-133 0 -192.5 -124t-59.5 -408z" />
<glyph unicode="1" horiz-adv-x="837" d="M72 1075v205l397 129h180v-1409h-266v1176l-297 -101h-14z" />
<glyph unicode="2" horiz-adv-x="1136" d="M115 0v182q49 51 127.5 130.5t119 121.5t99.5 105.5t89.5 102t68 91t54.5 92t29.5 85t12.5 89.5q0 107 -65.5 165.5t-196.5 58.5q-63 0 -138 -13.5t-119 -27.5l-44 -13h-15v207q18 5 50 13t125 21t177 13q254 0 382 -105.5t128 -285.5q0 -77 -25 -153t-60 -135 t-100.5 -135t-116 -125.5t-138.5 -135t-139 -137.5h596v-211h-901z" />
<glyph unicode="3" horiz-adv-x="1126" d="M117 31v202h14q150 -47 295 -47q139 0 216 57.5t77 162.5q0 122 -101 180q-35 20 -81.5 30t-75.5 11.5t-78 1.5h-141v202h143q142 0 213 41q92 54 92 166q0 88 -61.5 136.5t-186.5 48.5q-64 0 -137.5 -12.5t-115.5 -24.5l-42 -12h-16v204q152 45 338 45 q243 0 371.5 -94.5t128.5 -257.5q0 -127 -74.5 -212.5t-204.5 -113.5q138 -21 223.5 -111.5t85.5 -236.5q0 -189 -150.5 -300t-414.5 -111q-84 0 -163 11t-117 23z" />
<glyph unicode="4" horiz-adv-x="1267" d="M84 291v188l571 930h306v-913h210v-205h-210v-291h-246v291h-631zM319 496h396v641z" />
<glyph unicode="5" horiz-adv-x="1144" d="M139 35v207h15q19 -6 50.5 -15.5t114.5 -25t150 -15.5q144 0 216.5 64.5t72.5 175.5q0 114 -80 178t-252 64q-46 0 -107 -5t-99 -9l-38 -5h-14l39 760h749v-209h-536l-21 -342q68 8 138 8q238 0 366.5 -118t128.5 -314q0 -211 -149 -329.5t-410 -118.5q-84 0 -167.5 12 t-125.5 24z" />
<glyph unicode="6" horiz-adv-x="1286" d="M145 623q0 284 73 462t214 258t361 80q73 0 144 -8t105 -16l35 -8v-209h-14q-131 41 -270 41q-206 0 -291.5 -125.5t-85.5 -397.5q35 94 119.5 143.5t207.5 49.5q197 0 314 -119.5t117 -318.5q0 -216 -136.5 -348t-380.5 -132q-279 0 -407 179q-105 144 -105 469z M424 438q0 -119 61 -194.5t177 -75.5q113 0 176 72t63 198q0 121 -60.5 192.5t-174.5 71.5q-113 0 -177.5 -70t-64.5 -194z" />
<glyph unicode="7" horiz-adv-x="1071" d="M61 1200v209h926v-152l-469 -1257h-291l478 1200h-644z" />
<glyph unicode="8" horiz-adv-x="1269" d="M117 354q0 251 297 361q-119 47 -187.5 137.5t-68.5 214.5q0 170 128.5 267.5t350.5 97.5q220 0 347.5 -95t127.5 -258q0 -120 -69.5 -204.5t-190.5 -129.5q139 -50 220 -145t81 -229q0 -181 -141.5 -287.5t-384.5 -106.5q-238 0 -374 102t-136 275zM391 379 q0 -102 65 -158.5t177 -56.5q116 0 181 56.5t65 148.5q0 98 -76 162t-221 112q-90 -41 -140.5 -108t-50.5 -156zM428 1061q0 -89 66.5 -147.5t189.5 -102.5q68 36 113 98t45 144q0 90 -54.5 141t-152.5 51q-97 0 -152 -50.5t-55 -133.5z" />
<glyph unicode="9" horiz-adv-x="1286" d="M113 954q0 216 136 348t380 132q279 0 407 -179q105 -144 105 -469q0 -284 -72.5 -462t-213.5 -258t-361 -80q-73 0 -144 8t-106 16l-35 8v209h14q134 -41 271 -41q206 0 291 125t85 398q-33 -94 -118 -143.5t-209 -49.5q-198 0 -314 119.5t-116 318.5zM387 971 q0 -121 60 -192.5t174 -71.5q113 0 177 70t64 194q0 119 -60.5 194.5t-176.5 75.5q-113 0 -175.5 -72t-62.5 -198z" />
<glyph unicode=":" horiz-adv-x="622" d="M172 0v262h279v-262h-279zM172 848v262h279v-262h-279z" />
<glyph unicode=";" horiz-adv-x="622" d="M90 -303l90 573h271l-160 -573h-201zM172 848v262h279v-262h-279z" />
<glyph unicode="&#x3c;" horiz-adv-x="1392" d="M201 467v221l913 381v-213l-700 -274l700 -283v-213z" />
<glyph unicode="=" horiz-adv-x="1392" d="M209 274v189h975v-189h-975zM209 692v189h975v-189h-975z" />
<glyph unicode="&#x3e;" horiz-adv-x="1392" d="M279 86v213l700 274l-700 283v213l913 -381v-221z" />
<glyph unicode="?" horiz-adv-x="1122" d="M123 1290v209q18 6 50 15.5t130.5 25.5t196.5 16q262 0 397 -101.5t135 -283.5q0 -58 -14.5 -110t-35.5 -88t-55 -74t-60.5 -60.5t-66 -55t-59.5 -50.5q-32 -30 -54 -60.5t-33 -54t-16.5 -58t-6 -54t-0.5 -60.5h-242q0 55 1 83.5t8.5 74.5t22.5 78t44 73t72 81 q15 15 53.5 47.5t61.5 55.5t51 57t41.5 73t13.5 82q0 96 -72.5 148.5t-210.5 52.5q-76 0 -160 -15.5t-130 -30.5l-46 -16h-16zM373 0v258h274v-258h-274z" />
<glyph unicode="@" horiz-adv-x="2084" d="M205 602q0 180 65.5 335t180 264t275.5 171t347 62q180 0 332.5 -58.5t256 -159.5t161 -238t57.5 -292q0 -225 -111.5 -363.5t-291.5 -138.5q-101 0 -160.5 45t-71.5 123q-2 -7 -6 -18t-23 -40t-44.5 -51.5t-74 -40.5t-108.5 -18q-156 0 -251 112.5t-95 309.5 q0 198 98 314t260 116q169 0 232 -143l49 123h123v-504q0 -31 0.5 -46t3 -38.5t8 -35.5t15 -25t25.5 -18t38 -5q86 0 137 82.5t51 235.5q0 269 -162 436.5t-450 167.5q-300 0 -485 -180t-185 -474q0 -296 196 -472.5t550 -176.5q86 0 176 11t156.5 26.5t121 31.5t83.5 27 l28 11h17v-185q-32 -10 -88 -25t-212 -40t-292 -25q-217 0 -393 60t-294 167t-181.5 255.5t-63.5 324.5zM852 606q0 -125 42.5 -189.5t137.5 -64.5t137.5 64.5t42.5 189.5q0 262 -180 262t-180 -262z" />
<glyph unicode="A" horiz-adv-x="1433" d="M20 0l558 1540h286l549 -1540h-295l-129 385h-588l-131 -385h-250zM473 590h449l-222 663z" />
<glyph unicode="B" horiz-adv-x="1392" d="M188 0v1540h496q83 0 126.5 -2t112.5 -17t121 -46q168 -98 168 -314q0 -63 -15 -115.5t-38.5 -86t-52.5 -60t-58 -40.5t-52.5 -22.5t-38.5 -10.5l-15 -3q8 0 21 -1.5t50.5 -10.5t71.5 -23t75.5 -43t71.5 -67.5t50.5 -100t20.5 -135.5q0 -234 -193 -356 q-48 -31 -101 -49.5t-114.5 -26t-99.5 -9t-103 -1.5h-504zM459 197h221q48 0 75.5 1.5t72 12t81.5 31.5q111 63 111 204q0 142 -111 205q-37 21 -81.5 31.5t-72 12t-75.5 1.5h-221v-499zM459 905h188q41 0 64 1t58 9t62 23q99 57 99 184q0 132 -99 189q-27 15 -63 22.5 t-57 8.5t-64 1h-188v-438z" />
<glyph unicode="C" d="M111 770q0 131 27 247t86 215.5t145.5 171t212 112t278.5 40.5q86 0 169 -12t123 -24l40 -13v-213h-16q-15 6 -41.5 16t-103.5 26t-148 16q-123 0 -217.5 -45t-151 -124.5t-85 -181.5t-28.5 -223q0 -123 29 -227.5t86 -186.5t152 -129t219 -47q69 0 141.5 14.5 t109.5 29.5l38 14h16v-213q-16 -5 -44 -13.5t-115 -22t-173 -13.5q-153 0 -278.5 40.5t-212 112t-145.5 171t-86 215.5t-27 247z" />
<glyph unicode="D" horiz-adv-x="1581" d="M188 0v1540h430q79 0 126.5 -2t126 -10.5t148 -31t132.5 -58.5q147 -85 233 -251.5t86 -416.5q0 -248 -85.5 -415t-241.5 -255q-64 -35 -134.5 -57.5t-148 -30.5t-123.5 -10t-119 -2h-430zM463 205h172q72 0 115 2.5t103 16.5t110 42q116 65 166.5 191t50.5 313 q0 184 -51.5 311t-170.5 193q-51 28 -115.5 42.5t-103.5 16.5t-104 2h-172v-1130z" />
<glyph unicode="E" horiz-adv-x="1249" d="M188 0v1540h922v-209h-651v-426h553v-209h-553v-487h684v-209h-955z" />
<glyph unicode="F" horiz-adv-x="1163" d="M188 0v1540h902v-213h-627v-504h557v-213h-557v-610h-275z" />
<glyph unicode="G" horiz-adv-x="1527" d="M111 758q0 200 60.5 354t171 250.5t261.5 145t338 48.5q100 0 197 -13t145 -27l47 -13v-217h-16q-18 7 -50 18t-128 29.5t-187 18.5q-262 0 -405.5 -143.5t-143.5 -434.5q0 -289 138 -439.5t370 -150.5q51 0 101.5 7t75.5 15l24 7v397h-274v205h544v-754 q-23 -9 -63.5 -22.5t-164.5 -36t-245 -22.5q-180 0 -324.5 47.5t-250.5 141.5t-163.5 243.5t-57.5 345.5z" />
<glyph unicode="H" horiz-adv-x="1605" d="M188 0v1540h275v-635h680v635h274v-1540h-274v696h-680v-696h-275z" />
<glyph unicode="I" horiz-adv-x="651" d="M188 0v1540h275v-1540h-275z" />
<glyph unicode="J" horiz-adv-x="917" d="M33 12v209h16q90 -28 172 -28q134 0 193 86q19 29 28.5 68.5t11 68t1.5 84.5v1040h274v-1020q0 -79 -2.5 -124t-22 -116t-57.5 -124q-121 -168 -405 -168q-55 0 -107 6t-77 12z" />
<glyph unicode="K" horiz-adv-x="1429" d="M188 0v1540h271v-688l610 688h299l-573 -639l585 -901h-323l-447 709l-151 -156v-553h-271z" />
<glyph unicode="L" horiz-adv-x="1101" d="M188 0v1540h275v-1327h610v-213h-885z" />
<glyph unicode="M" horiz-adv-x="2039" d="M188 0v1540h349l491 -1175l479 1175h344v-1540h-270v1204l-455 -1126h-241l-455 1126v-1204h-242z" />
<glyph unicode="N" horiz-adv-x="1622" d="M188 0v1540h267l737 -1094v1094h242v-1540h-242l-762 1114v-1114h-242z" />
<glyph unicode="O" horiz-adv-x="1654" d="M111 768q0 376 188 588.5t532 212.5q343 0 528 -212.5t185 -584.5q0 -375 -188.5 -588t-532.5 -213q-343 0 -527.5 212.5t-184.5 584.5zM401 770q0 -295 109 -444.5t317 -149.5t317 149.5t109 444.5t-109 444.5t-317 149.5t-317 -149.5t-109 -444.5z" />
<glyph unicode="P" horiz-adv-x="1347" d="M188 0v1540h418q87 0 142 -2.5t147 -23t158 -60.5q101 -61 155 -168t54 -244q0 -148 -61.5 -260.5t-168.5 -175.5q-91 -52 -191.5 -67t-238.5 -15h-139v-524h-275zM463 729h160q52 0 83 1.5t79.5 14.5t82.5 37q107 77 107 250q0 175 -107 250q-34 24 -82.5 37t-79.5 14.5 t-83 1.5h-160v-606z" />
<glyph unicode="Q" horiz-adv-x="1654" d="M111 768q0 376 188 588.5t532 212.5q343 0 528 -212.5t185 -584.5q0 -250 -85 -430t-247 -276l226 -308h-312l-151 226q-80 -13 -152 -13q-343 0 -527.5 212.5t-184.5 584.5zM401 770q0 -295 109 -444.5t317 -149.5t317 149.5t109 444.5t-109 444.5t-317 149.5 t-317 -149.5t-109 -444.5z" />
<glyph unicode="R" horiz-adv-x="1413" d="M188 0v1540h512q60 0 97 -1.5t98 -9t114.5 -27.5t100.5 -52q172 -117 172 -365q0 -173 -79.5 -281.5t-221.5 -154.5l379 -649h-307l-336 610h-258v-610h-271zM459 815h237q143 0 209 45q94 64 94 215q0 147 -94 213q-32 22 -74 33t-67 12.5t-68 1.5h-237v-520z" />
<glyph unicode="S" horiz-adv-x="1216" d="M125 1139q0 196 142.5 306.5t394.5 110.5q91 0 184 -14t140 -28l48 -15v-209h-16q-20 8 -55 19.5t-127 31t-166 19.5q-126 0 -192 -49.5t-66 -134.5q0 -50 24 -90.5t64 -70t92.5 -56.5t110 -53t115 -55t110 -68t92.5 -86t64 -115t24 -150q0 -112 -43.5 -198.5 t-122 -140.5t-183.5 -81.5t-233 -27.5q-105 0 -204 17t-146 35l-47 17v217h16q23 -10 63 -25t143.5 -40t185.5 -25q132 0 208 59t76 158q0 67 -38.5 120t-100 89t-135.5 70t-148 73.5t-135.5 88t-100 126t-38.5 175.5z" />
<glyph unicode="T" horiz-adv-x="1224" d="M45 1327v213h1135v-213h-430v-1327h-275v1327h-430z" />
<glyph unicode="U" horiz-adv-x="1572" d="M188 610v930h275v-975q0 -71 9 -127t32 -106.5t60.5 -83.5t98 -52.5t140.5 -19.5t140.5 19.5t98 52.5t60.5 83.5t32 106.5t9 127v975h241v-930q0 -56 -0.5 -86t-7 -88.5t-18.5 -99.5t-36.5 -91.5t-59.5 -92.5q-156 -181 -478 -181q-320 0 -473 181q-35 42 -60 92.5 t-37 92t-18 99t-7 89t-1 85.5z" />
<glyph unicode="V" horiz-adv-x="1445" d="M37 1540h299l405 -1237l422 1237h246l-557 -1540h-270z" />
<glyph unicode="W" horiz-adv-x="2138" d="M53 1540h291l303 -1196l311 1159h275l311 -1159l303 1196h238l-422 -1540h-279l-315 1171l-315 -1171h-279z" />
<glyph unicode="X" horiz-adv-x="1470" d="M49 0l512 791l-487 749h327l361 -577l360 577h271l-488 -741l520 -799h-331l-385 623l-394 -623h-266z" />
<glyph unicode="Y" horiz-adv-x="1355" d="M20 1540h320l369 -692l368 692h258l-520 -934v-606h-274v602z" />
<glyph unicode="Z" horiz-adv-x="1323" d="M106 0v197l766 1134h-741v209h1065v-188l-770 -1143h786v-209h-1106z" />
<glyph unicode="[" horiz-adv-x="839" d="M188 -315v1912h541v-196h-299v-1520h299v-196h-541z" />
<glyph unicode="\" horiz-adv-x="929" d="M37 1597h225l631 -1654h-225z" />
<glyph unicode="]" horiz-adv-x="843" d="M115 -119h299v1520h-299v196h540v-1912h-540v196z" />
<glyph unicode="^" horiz-adv-x="1075" d="M90 819l316 721h264l313 -721h-252l-201 496l-204 -496h-236z" />
<glyph unicode="_" horiz-adv-x="778" d="M-8 -61h794v-185h-794v185z" />
<glyph unicode="`" horiz-adv-x="1228" d="M246 1597h295l176 -307h-209z" />
<glyph unicode="a" horiz-adv-x="1187" d="M86 315q0 191 147 279q48 29 108 47t140 25t133 8.5t152 1.5q0 47 -1 71.5t-9 59t-23 57.5q-53 78 -213 78q-71 0 -150 -14t-122 -28l-43 -15h-17v213q18 5 50 12.5t127.5 20t185.5 12.5q310 0 416 -152q31 -44 46 -108.5t17 -108t2 -127.5v-647h-201l-53 184 q-17 -87 -96 -148t-219 -61q-166 0 -271.5 89.5t-105.5 250.5zM365 326q0 -68 41 -107t122 -39q69 0 123.5 27.5t81.5 79.5q33 63 33 196v25q-125 0 -198.5 -8t-121.5 -33q-81 -44 -81 -141z" />
<glyph unicode="b" horiz-adv-x="1347" d="M168 0v1597h266v-659q29 99 112.5 156t219.5 57q223 0 351 -153.5t128 -428.5q0 -280 -134.5 -437t-375.5 -157q-257 0 -329 193l-70 -168h-168zM430 559q0 -180 64 -283.5t200 -103.5t200 104t64 285q0 180 -64 282.5t-200 102.5t-200 -103.5t-64 -283.5z" />
<glyph unicode="c" horiz-adv-x="1013" d="M102 561q0 274 145 428t421 154q64 0 125 -8.5t91 -16.5l29 -8v-217h-16q-98 45 -211 45q-147 0 -222 -97.5t-75 -275.5t75 -277.5t220 -99.5q49 0 102.5 11t81.5 23l29 11h16v-217q-98 -32 -243 -32q-278 0 -423 151.5t-145 425.5z" />
<glyph unicode="d" horiz-adv-x="1347" d="M102 557q0 269 128.5 431.5t367.5 162.5q249 0 315 -193v639h267v-1597h-209l-53 188q-27 -99 -114 -156t-224 -57q-229 0 -353.5 158.5t-124.5 423.5zM389 563q0 -178 64 -280.5t200 -102.5t200.5 103.5t64.5 281.5q0 177 -64.5 279t-200.5 102t-200 -102.5t-64 -280.5z " />
<glyph unicode="e" horiz-adv-x="1216" d="M102 555q0 278 138 439t387 161q137 0 239.5 -50.5t161.5 -146.5q28 -45 45 -98.5t23.5 -123t8 -116t1.5 -133.5h-725q0 -146 83 -226.5t241 -80.5q69 0 149 15.5t125 30.5l45 16h16v-209q-17 -5 -48 -13.5t-124.5 -22t-183.5 -13.5q-284 0 -430 139q-152 146 -152 432z M381 672h450q0 147 -50 221t-163 74t-168.5 -75.5t-68.5 -219.5z" />
<glyph unicode="f" horiz-adv-x="917" d="M49 913v197h217v70q0 64 1.5 96.5t13 81t34.5 88.5q92 156 359 156q45 0 89.5 -4t66.5 -8l22 -5v-209h-16q-74 25 -146 25q-103 0 -137 -70q-21 -45 -21 -155v-66h320v-197h-320v-913h-266v913h-217z" />
<glyph unicode="g" horiz-adv-x="1351" d="M102 580q0 264 134 417.5t374 153.5q252 0 336 -188l74 163h164v-962q0 -64 -1.5 -100.5t-8 -93t-23.5 -102.5t-45 -85q-140 -201 -520 -201q-106 0 -205.5 15.5t-146.5 30.5l-46 16v229h17q22 -10 60.5 -25t141.5 -40t189 -25q100 0 174 31.5t111 91.5q19 31 28.5 75 t11 75.5t1.5 90.5v78q-34 -96 -121.5 -148t-218.5 -52q-224 0 -352 148t-128 407zM389 586q0 -365 266 -365q267 0 267 365q0 368 -267 368q-266 0 -266 -368z" />
<glyph unicode="h" d="M168 0v1597h266v-647q62 201 320 201q227 0 327 -147q24 -34 38 -71t20 -86.5t7 -83t1 -99.5v-664h-270v668q0 44 -1 67.5t-10 57.5t-26 59q-57 82 -178 82q-58 0 -101.5 -17.5t-67 -42.5t-37.5 -61t-18 -64.5t-4 -60.5v-688h-266z" />
<glyph unicode="i" horiz-adv-x="602" d="M164 1298v242h274v-242h-274zM168 0v1126h266v-1126h-266z" />
<glyph unicode="j" horiz-adv-x="614" d="M-86 -197h16q43 -8 88 -8q100 0 138 66q12 21 17.5 49t6 45t0.5 57v1114h266v-1101q0 -62 -1.5 -95t-13 -82.5t-34.5 -89.5q-92 -159 -364 -159q-32 0 -62 2t-43 4l-14 2v196zM176 1298v242h275v-242h-275z" />
<glyph unicode="k" horiz-adv-x="1228" d="M168 0v1597h266v-942l422 471h295l-422 -458l438 -668h-311l-307 492l-115 -115v-377h-266z" />
<glyph unicode="l" horiz-adv-x="602" d="M168 0v1597h266v-1597h-266z" />
<glyph unicode="m" horiz-adv-x="1953" d="M168 0v1126h209l49 -192q56 217 326 217q140 0 221.5 -57.5t120.5 -167.5q40 115 119.5 170t207.5 55q120 0 198 -42.5t118 -104.5q29 -44 43 -104t16 -104.5t2 -131.5v-664h-270v668q0 44 -1 67.5t-9 57.5t-23 59q-53 82 -168 82q-53 0 -92.5 -17.5t-61 -43t-34.5 -60.5 t-17 -64t-4 -61v-688h-270v668q0 44 -1 67.5t-9 57.5t-23 59q-53 82 -168 82q-53 0 -92.5 -17.5t-61 -43t-34.5 -60.5t-17 -64t-4 -61v-688h-270z" />
<glyph unicode="n" horiz-adv-x="1306" d="M168 0v1126h209l49 -192q61 217 334 217q225 0 325 -147q24 -34 38 -71t20 -86.5t7 -83t1 -99.5v-664h-270v668q0 44 -1 67.5t-10 57.5t-26 59q-57 82 -178 82q-58 0 -101.5 -17.5t-67 -42.5t-37.5 -61t-18 -64.5t-4 -60.5v-688h-270z" />
<glyph unicode="o" horiz-adv-x="1306" d="M102 561q0 288 143.5 441t409.5 153q262 0 405.5 -150.5t143.5 -439.5q0 -288 -143.5 -441t-409.5 -153q-262 0 -405.5 150.5t-143.5 439.5zM389 563q0 -194 65.5 -296.5t198.5 -102.5q136 0 200.5 105t64.5 294q0 194 -66 297t-199 103q-136 0 -200 -105t-64 -295z" />
<glyph unicode="p" horiz-adv-x="1347" d="M168 -401v1527h209l53 -188q27 99 114 156t224 57q229 0 353 -158.5t124 -423.5q0 -176 -54.5 -308.5t-167.5 -209t-273 -76.5q-250 0 -316 193v-569h-266zM430 561q0 -177 64 -279t200 -102t200 102.5t64 280.5t-64 280.5t-200 102.5t-200 -103.5t-64 -281.5z" />
<glyph unicode="q" horiz-adv-x="1347" d="M102 557q0 280 134.5 437t375.5 157q258 0 330 -193l70 168h168v-1527h-267v589q-29 -99 -112 -156t-219 -57q-223 0 -351.5 153.5t-128.5 428.5zM389 565q0 -180 64 -282.5t200 -102.5t200.5 103.5t64.5 283.5t-64.5 283.5t-200.5 103.5t-200 -104t-64 -285z" />
<glyph unicode="r" horiz-adv-x="841" d="M168 0v1126h205l53 -221q29 131 117.5 182.5t226.5 51.5h29v-254q-56 12 -119 12q-50 0 -89.5 -11t-64.5 -26t-43 -40.5t-26.5 -46t-13 -52t-5 -47.5t-0.5 -43v-631h-270z" />
<glyph unicode="s" horiz-adv-x="1003" d="M121 37v217h16q19 -8 52 -19.5t116.5 -31t147.5 -19.5q88 0 132 31.5t44 83.5q0 41 -28 72.5t-73 53.5t-99 44t-108 50t-99 63.5t-73 93.5t-28 133q0 155 116.5 244.5t327.5 89.5q71 0 141.5 -10.5t105.5 -20.5l34 -10v-217h-17q-16 6 -43.5 15.5t-99 25.5t-127.5 16 q-83 0 -125.5 -28.5t-42.5 -73.5q0 -35 28 -62.5t73 -47.5t99 -41.5t108 -51t99 -68t73 -100.5t28 -141q0 -173 -124.5 -258.5t-336.5 -85.5q-87 0 -166 13t-115 27z" />
<glyph unicode="t" horiz-adv-x="935" d="M49 913v197h205v291l266 78v-369h311v-197h-311v-507q0 -47 1 -69.5t6.5 -51t17.5 -47.5q33 -54 121 -54q36 0 73 7t57 15l19 7h16v-205q-85 -24 -204 -24q-240 0 -324 127q-23 36 -34.5 86.5t-13 88.5t-1.5 115v512h-205z" />
<glyph unicode="u" d="M168 463v663h270v-667q0 -44 1 -68t10 -58t26 -59q57 -81 184 -81q205 0 205 245v688h271v-1126h-209l-49 193q-26 -100 -109.5 -159t-222.5 -59q-217 0 -312 140q-24 34 -38 72t-19.5 90t-6.5 84.5t-1 101.5z" />
<glyph unicode="v" horiz-adv-x="1253" d="M70 1126h303l278 -823l287 823h246l-426 -1126h-266z" />
<glyph unicode="w" horiz-adv-x="1849" d="M88 1126h283l213 -823l229 799h266l230 -799l213 823h237l-323 -1126h-279l-233 811l-234 -811h-278z" />
<glyph unicode="x" horiz-adv-x="1239" d="M72 0l377 569l-365 557h332l229 -381l234 381h270l-361 -544l386 -582h-332l-250 406l-250 -406h-270z" />
<glyph unicode="y" horiz-adv-x="1249" d="M68 1126h303l278 -798l287 798h246l-594 -1527h-271l185 421z" />
<glyph unicode="z" horiz-adv-x="1085" d="M119 0v213l524 700h-516v197h836v-197l-537 -716h545v-197h-852z" />
<glyph unicode="{" horiz-adv-x="837" d="M78 543v196q96 0 138 24t42 105v369q0 45 1.5 71t9 67.5t27 75.5t50.5 62q27 24 62.5 41t66.5 25t81 12.5t80.5 5t90.5 0.5v-196q-61 0 -96.5 -4.5t-68.5 -20t-47.5 -48t-14.5 -85.5v-360q0 -30 -1 -46.5t-5 -45.5t-15 -47.5t-28.5 -40t-47.5 -37t-71 -25.5 q41 -10 71 -25.5t47.5 -37t28.5 -40t15 -47.5t5 -45.5t1 -46.5v-360q0 -53 14.5 -85.5t47.5 -48t68.5 -20t96.5 -4.5v-196q-60 0 -90.5 0.5t-80.5 5t-81 12.5t-66.5 25t-62.5 41q-31 28 -50.5 62t-27 75.5t-9 67.5t-1.5 71v369q0 81 -42 105t-138 24z" />
<glyph unicode="|" horiz-adv-x="630" d="M188 -401v1998h254v-1998h-254z" />
<glyph unicode="}" horiz-adv-x="837" d="M111 -119q61 0 96.5 4.5t68.5 20t47.5 48t14.5 85.5v360q0 30 1 46.5t5 45.5t15 47.5t28.5 40t47.5 37t71 25.5q-41 10 -71 25.5t-47.5 37t-28.5 40t-15 47.5t-5 45.5t-1 46.5v360q0 53 -14.5 85.5t-47.5 48t-68.5 20t-96.5 4.5v196q60 0 90.5 -0.5t80.5 -5t81 -12.5 t66.5 -25t62.5 -41q31 -28 50.5 -62t27 -75.5t9 -67.5t1.5 -71v-369q0 -81 42 -105t138 -24v-196q-96 0 -138 -24t-42 -105v-369q0 -45 -1.5 -71t-9 -67.5t-27 -75.5t-50.5 -62q-27 -24 -62.5 -41t-66.5 -25t-81 -12.5t-80.5 -5t-90.5 -0.5v196z" />
<glyph unicode="~" horiz-adv-x="1392" d="M156 393v221q5 6 13.5 16t39 35t64 44t87.5 35t111 16q58 0 112.5 -16.5t96.5 -40t81.5 -47t84 -40t88.5 -16.5t89.5 16.5t79 40t60 47t40.5 40.5l14 16h20v-221q-5 -6 -13.5 -16t-39 -35t-64 -44t-87.5 -35t-111 -16q-58 0 -112.5 16.5t-96.5 40t-81.5 47t-84 40 t-88.5 16.5t-89.5 -16.5t-79 -40t-60 -47t-40.5 -39.5l-14 -17h-20z" />
<glyph unicode="&#xa2;" horiz-adv-x="1101" d="M102 639q0 246 139 388t382 161l16 221h188l-24 -223q50 -4 99.5 -12.5t73.5 -14.5l25 -6v-190h-16q-97 26 -201 38l-61 -731q56 2 121.5 13t103.5 21l37 11h16v-190q-134 -37 -292 -39l-15 -217h-188l24 231q-202 41 -315 179t-113 360zM336 645q0 -131 54.5 -222.5 t158.5 -129.5l59 706q-133 -23 -202.5 -115t-69.5 -239z" />
<glyph unicode="&#xa3;" horiz-adv-x="1142" d="M115 0v164q250 128 250 358q0 43 -15 105h-235v200h149q-59 122 -59 224q0 172 135.5 272t361.5 100q64 0 129.5 -8t98.5 -16l33 -8v-209h-15q-123 41 -246 41q-113 0 -171 -44.5t-58 -125.5q0 -24 4.5 -46.5t14.5 -47t18 -41t24.5 -46.5t24.5 -45h365v-200h-297 q4 -46 4 -68q0 -243 -193 -354h596v-205h-919z" />
<glyph unicode="&#xa5;" horiz-adv-x="1380" d="M74 1409h299l340 -543l342 543h252l-443 -661h285v-166h-330v-140h330v-166h-330v-276h-258v276h-330v166h330v140h-330v166h283z" />
<glyph unicode="&#xa8;" horiz-adv-x="1228" d="M283 1307v233h239v-233h-239zM707 1307v233h239v-233h-239z" />
<glyph unicode="&#xa9;" horiz-adv-x="1828" d="M111 705q0 214 94 380t266.5 258.5t396.5 92.5q223 0 395 -92t266.5 -258.5t94.5 -380.5t-94.5 -380.5t-267 -259t-396.5 -92.5q-223 0 -395 92.5t-266 259t-94 380.5zM295 705q0 -163 68.5 -293t200 -205.5t304.5 -75.5q259 0 415.5 162.5t156.5 411.5q0 164 -68.5 294 t-200 205.5t-303.5 75.5q-173 0 -304.5 -75.5t-200 -205.5t-68.5 -294zM479 705q0 83 23 151.5t62.5 117t94.5 82t118.5 49t133.5 15.5q54 0 107.5 -9t80.5 -19l27 -9v-180h-16q-78 35 -172 35q-110 0 -167.5 -59.5t-57.5 -173.5t57.5 -174t167.5 -60q42 0 85 8.5t65 17.5 l22 9h16v-178q-94 -37 -215 -37q-88 0 -165 25.5t-137.5 75t-95 130t-34.5 183.5z" />
<glyph unicode="&#xab;" horiz-adv-x="1228" d="M115 641l262 440h250l-279 -436l279 -444h-250zM602 641l262 440h250l-278 -436l278 -444h-250z" />
<glyph unicode="&#xad;" horiz-adv-x="905" d="M123 537v208h659v-208h-659z" />
<glyph unicode="&#xae;" horiz-adv-x="1171" d="M86 1284q0 215 140 346t360 131t359.5 -131t139.5 -346q0 -214 -139 -343.5t-360 -129.5t-360.5 129.5t-139.5 343.5zM225 1286q0 -156 97 -254t262 -98t263.5 98t98.5 254t-98.5 254t-263.5 98t-262 -98t-97 -254zM381 1044v496h180q43 0 66 -1t56 -10t58 -26 q62 -44 62 -129q0 -105 -90 -149l106 -181h-155l-78 156h-66v-156h-139zM520 1303h66q78 0 78 65q0 70 -78 70h-66v-135z" />
<glyph unicode="&#xb4;" horiz-adv-x="1228" d="M512 1290l176 307h295l-262 -307h-209z" />
<glyph unicode="&#xb8;" horiz-adv-x="1239" d="M385 -246h16q50 -12 95 -12q56 0 87 24.5t31 71.5q0 34 -19 71t-63 91h132q135 -68 135 -190q0 -95 -79 -155.5t-224 -60.5q-25 0 -53 2t-43 4l-15 3v151z" />
<glyph unicode="&#xbb;" horiz-adv-x="1228" d="M115 201l278 436l-278 444h250l262 -440l-262 -440h-250zM602 201l279 436l-279 444h250l262 -440l-262 -440h-250z" />
<glyph unicode="&#xc2;" horiz-adv-x="1433" d="M20 0l558 1540h286l549 -1540h-295l-129 385h-588l-131 -385h-250zM338 1708l237 272h267l237 -272h-237l-140 152l-137 -152h-227zM473 590h449l-222 663z" />
<glyph unicode="&#xc7;" d="M111 770q0 131 27 247t86 215.5t145.5 171t212 112t278.5 40.5q86 0 169 -12t123 -24l40 -13v-213h-16q-15 6 -41.5 16t-103.5 26t-148 16q-123 0 -217.5 -45t-151 -124.5t-85 -181.5t-28.5 -223q0 -123 29 -227.5t86 -186.5t152 -129t219 -47q69 0 141.5 14.5 t109.5 29.5l38 14h16v-213q-117 -41 -283 -47q107 -69 107 -176q0 -95 -79 -155.5t-224 -60.5q-25 0 -53 2t-43 4l-15 3v151h16q50 -12 95 -12q56 0 87 24.5t31 71.5q0 62 -73 152q-132 12 -240 58.5t-183 118t-126 167.5t-74.5 205t-23.5 231z" />
<glyph unicode="&#xce;" horiz-adv-x="651" d="M-47 1708l237 272h267l237 -272h-237l-140 152l-137 -152h-227zM188 0v1540h275v-1540h-275z" />
<glyph unicode="&#xd6;" horiz-adv-x="1654" d="M111 768q0 376 188 588.5t532 212.5q343 0 528 -212.5t185 -584.5q0 -375 -188.5 -588t-532.5 -213q-343 0 -527.5 212.5t-184.5 584.5zM401 770q0 -295 109 -444.5t317 -149.5t317 149.5t109 444.5t-109 444.5t-317 149.5t-317 -149.5t-109 -444.5zM463 1708v229h250 v-229h-250zM942 1708v229h250v-229h-250z" />
<glyph unicode="&#xdb;" horiz-adv-x="1572" d="M188 610v930h275v-975q0 -71 9 -127t32 -106.5t60.5 -83.5t98 -52.5t140.5 -19.5t140.5 19.5t98 52.5t60.5 83.5t32 106.5t9 127v975h241v-930q0 -56 -0.5 -86t-7 -88.5t-18.5 -99.5t-36.5 -91.5t-59.5 -92.5q-156 -181 -478 -181q-320 0 -473 181q-35 42 -60 92.5 t-37 92t-18 99t-7 89t-1 85.5zM416 1708l237 272h267l237 -272h-237l-140 152l-137 -152h-227z" />
<glyph unicode="&#xdc;" horiz-adv-x="1572" d="M188 610v930h275v-975q0 -71 9 -127t32 -106.5t60.5 -83.5t98 -52.5t140.5 -19.5t140.5 19.5t98 52.5t60.5 83.5t32 106.5t9 127v975h241v-930q0 -56 -0.5 -86t-7 -88.5t-18.5 -99.5t-36.5 -91.5t-59.5 -92.5q-156 -181 -478 -181q-320 0 -473 181q-35 42 -60 92.5 t-37 92t-18 99t-7 89t-1 85.5zM422 1708v229h250v-229h-250zM901 1708v229h250v-229h-250z" />
<glyph unicode="&#xe2;" horiz-adv-x="1187" d="M86 315q0 191 147 279q48 29 108 47t140 25t133 8.5t152 1.5q0 47 -1 71.5t-9 59t-23 57.5q-53 78 -213 78q-71 0 -150 -14t-122 -28l-43 -15h-17v213q18 5 50 12.5t127.5 20t185.5 12.5q310 0 416 -152q31 -44 46 -108.5t17 -108t2 -127.5v-647h-201l-53 184 q-17 -87 -96 -148t-219 -61q-166 0 -271.5 89.5t-105.5 250.5zM233 1290l238 307h221l238 -307h-217l-138 172l-137 -172h-205zM365 326q0 -68 41 -107t122 -39q69 0 123.5 27.5t81.5 79.5q33 63 33 196v25q-125 0 -198.5 -8t-121.5 -33q-81 -44 -81 -141z" />
<glyph unicode="&#xe7;" horiz-adv-x="1013" d="M102 561q0 274 145 428t421 154q64 0 125 -8.5t91 -16.5l29 -8v-217h-16q-98 45 -211 45q-147 0 -222 -97.5t-75 -275.5t75 -277.5t220 -99.5q49 0 102.5 11t81.5 23l29 11h16v-217q-83 -26 -208 -32q106 -63 106 -174q0 -95 -79 -155.5t-224 -60.5q-25 0 -53 2t-43 4 l-15 3v151h17q49 -12 94 -12q56 0 87.5 24.5t31.5 71.5q0 64 -76 154q-221 30 -335 177.5t-114 391.5z" />
<glyph unicode="&#xee;" horiz-adv-x="602" d="M-47 1290l237 307h222l237 -307h-217l-137 172l-137 -172h-205zM168 0v1126h266v-1126h-266z" />
<glyph unicode="&#xf6;" horiz-adv-x="1306" d="M102 561q0 288 143.5 441t409.5 153q262 0 405.5 -150.5t143.5 -439.5q0 -288 -143.5 -441t-409.5 -153q-262 0 -405.5 150.5t-143.5 439.5zM319 1307v233h240v-233h-240zM389 563q0 -194 65.5 -296.5t198.5 -102.5q136 0 200.5 105t64.5 294q0 194 -66 297t-199 103 q-136 0 -200 -105t-64 -295zM743 1307v233h240v-233h-240z" />
<glyph unicode="&#xfb;" d="M168 463v663h270v-667q0 -44 1 -68t10 -58t26 -59q57 -81 184 -81q205 0 205 245v688h271v-1126h-209l-49 193q-26 -100 -109.5 -159t-222.5 -59q-217 0 -312 140q-24 34 -38 72t-19.5 90t-6.5 84.5t-1 101.5zM303 1290l238 307h221l237 -307h-217l-137 172l-137 -172 h-205z" />
<glyph unicode="&#xfc;" d="M168 463v663h270v-667q0 -44 1 -68t10 -58t26 -59q57 -81 184 -81q205 0 205 245v688h271v-1126h-209l-49 193q-26 -100 -109.5 -159t-222.5 -59q-217 0 -312 140q-24 34 -38 72t-19.5 90t-6.5 84.5t-1 101.5zM319 1307v233h240v-233h-240zM743 1307v233h240v-233h-240z " />
<glyph unicode="&#x100;" horiz-adv-x="1433" d="M20 0l558 1540h286l549 -1540h-295l-129 385h-588l-131 -385h-250zM348 1735v176h721v-176h-721zM473 590h449l-222 663z" />
<glyph unicode="&#x101;" horiz-adv-x="1187" d="M86 315q0 191 147 279q48 29 108 47t140 25t133 8.5t152 1.5q0 47 -1 71.5t-9 59t-23 57.5q-53 78 -213 78q-71 0 -150 -14t-122 -28l-43 -15h-17v213q18 5 50 12.5t127.5 20t185.5 12.5q310 0 416 -152q31 -44 46 -108.5t17 -108t2 -127.5v-647h-201l-53 184 q-17 -87 -96 -148t-219 -61q-166 0 -271.5 89.5t-105.5 250.5zM262 1311v164h639v-164h-639zM365 326q0 -68 41 -107t122 -39q69 0 123.5 27.5t81.5 79.5q33 63 33 196v25q-125 0 -198.5 -8t-121.5 -33q-81 -44 -81 -141z" />
<glyph unicode="&#x102;" horiz-adv-x="1433" d="M20 0l558 1540h286l549 -1540h-295l-129 385h-588l-131 -385h-250zM362 1980h191q0 -65 40 -99t116 -34t115.5 34t39.5 99h191q0 -135 -85 -209.5t-261 -74.5t-261.5 74.5t-85.5 209.5zM473 590h449l-222 663z" />
<glyph unicode="&#x103;" horiz-adv-x="1187" d="M86 315q0 191 147 279q48 29 108 47t140 25t133 8.5t152 1.5q0 47 -1 71.5t-9 59t-23 57.5q-53 78 -213 78q-71 0 -150 -14t-122 -28l-43 -15h-17v213q18 5 50 12.5t127.5 20t185.5 12.5q310 0 416 -152q31 -44 46 -108.5t17 -108t2 -127.5v-647h-201l-53 184 q-17 -87 -96 -148t-219 -61q-166 0 -271.5 89.5t-105.5 250.5zM242 1597h190q0 -159 150 -159q75 0 112 38.5t37 120.5h191q0 -307 -340 -307t-340 307zM365 326q0 -68 41 -107t122 -39q69 0 123.5 27.5t81.5 79.5q33 63 33 196v25q-125 0 -198.5 -8t-121.5 -33 q-81 -44 -81 -141z" />
<glyph unicode="&#x104;" horiz-adv-x="1433" d="M20 0l558 1540h286l549 -1540q-135 -22 -198.5 -69t-63.5 -111q0 -92 129 -92q29 0 58.5 4.5t43.5 9.5l15 4h16v-133q-68 -19 -168 -19q-139 0 -215 47.5t-76 139.5q0 139 164 219l-129 385h-588l-131 -385h-250zM473 590h449l-222 663z" />
<glyph unicode="&#x105;" horiz-adv-x="1187" d="M86 315q0 191 147 279q48 29 108 47t140 25t133 8.5t152 1.5q0 47 -1 71.5t-9 59t-23 57.5q-53 78 -213 78q-71 0 -150 -14t-122 -28l-43 -15h-17v213q18 5 50 12.5t127.5 20t185.5 12.5q310 0 416 -152q31 -44 46 -108.5t17 -108t2 -127.5v-674q-128 -23 -195 -65 t-67 -96q0 -42 36.5 -63t94.5 -21q27 0 56 4.5t44 9.5l15 4h16v-133q-68 -19 -166 -19q-138 0 -215.5 47t-77.5 134q0 44 20 80t58.5 63t79.5 45.5t98 36.5h2l-53 184q-17 -87 -96 -148t-219 -61q-166 0 -271.5 89.5t-105.5 250.5zM365 326q0 -68 41 -107t122 -39 q69 0 123.5 27.5t81.5 79.5q33 63 33 196v25q-125 0 -198.5 -8t-121.5 -33q-81 -44 -81 -141z" />
<glyph unicode="&#x106;" d="M111 770q0 131 27 247t86 215.5t145.5 171t212 112t278.5 40.5q86 0 169 -12t123 -24l40 -13v-213h-16q-15 6 -41.5 16t-103.5 26t-148 16q-123 0 -217.5 -45t-151 -124.5t-85 -181.5t-28.5 -223q0 -123 29 -227.5t86 -186.5t152 -129t219 -47q69 0 141.5 14.5 t109.5 29.5l38 14h16v-213q-16 -5 -44 -13.5t-115 -22t-173 -13.5q-153 0 -278.5 40.5t-212 112t-145.5 171t-86 215.5t-27 247zM692 1708l211 272h332l-311 -272h-232z" />
<glyph unicode="&#x107;" horiz-adv-x="1013" d="M102 561q0 274 145 428t421 154q64 0 125 -8.5t91 -16.5l29 -8v-217h-16q-98 45 -211 45q-147 0 -222 -97.5t-75 -275.5t75 -277.5t220 -99.5q49 0 102.5 11t81.5 23l29 11h16v-217q-98 -32 -243 -32q-278 0 -423 151.5t-145 425.5zM504 1290l176 307h295l-262 -307h-209 z" />
<glyph unicode="&#x108;" d="M111 770q0 131 27 247t86 215.5t145.5 171t212 112t278.5 40.5q86 0 169 -12t123 -24l40 -13v-213h-16q-15 6 -41.5 16t-103.5 26t-148 16q-123 0 -217.5 -45t-151 -124.5t-85 -181.5t-28.5 -223q0 -123 29 -227.5t86 -186.5t152 -129t219 -47q69 0 141.5 14.5 t109.5 29.5l38 14h16v-213q-16 -5 -44 -13.5t-115 -22t-173 -13.5q-153 0 -278.5 40.5t-212 112t-145.5 171t-86 215.5t-27 247zM432 1708l238 272h266l238 -272h-238l-139 152l-138 -152h-227z" />
<glyph unicode="&#x109;" horiz-adv-x="1013" d="M102 561q0 274 145 428t421 154q64 0 125 -8.5t91 -16.5l29 -8v-217h-16q-98 45 -211 45q-147 0 -222 -97.5t-75 -275.5t75 -277.5t220 -99.5q49 0 102.5 11t81.5 23l29 11h16v-217q-98 -32 -243 -32q-278 0 -423 151.5t-145 425.5zM258 1290l238 307h221l237 -307h-217 l-137 172l-137 -172h-205z" />
<glyph unicode="&#x10c;" d="M111 770q0 131 27 247t86 215.5t145.5 171t212 112t278.5 40.5q86 0 169 -12t123 -24l40 -13v-213h-16q-15 6 -41.5 16t-103.5 26t-148 16q-123 0 -217.5 -45t-151 -124.5t-85 -181.5t-28.5 -223q0 -123 29 -227.5t86 -186.5t152 -129t219 -47q69 0 141.5 14.5 t109.5 29.5l38 14h16v-213q-16 -5 -44 -13.5t-115 -22t-173 -13.5q-153 0 -278.5 40.5t-212 112t-145.5 171t-86 215.5t-27 247zM432 1980h242l135 -159l133 159h232l-238 -272h-266z" />
<glyph unicode="&#x10d;" horiz-adv-x="1013" d="M102 561q0 274 145 428t421 154q64 0 125 -8.5t91 -16.5l29 -8v-217h-16q-98 45 -211 45q-147 0 -222 -97.5t-75 -275.5t75 -277.5t220 -99.5q49 0 102.5 11t81.5 23l29 11h16v-217q-98 -32 -243 -32q-278 0 -423 151.5t-145 425.5zM258 1597h225l129 -184l129 184h213 l-237 -307h-221z" />
<glyph unicode="&#x10e;" horiz-adv-x="1581" d="M188 0v1540h430q79 0 126.5 -2t126 -10.5t148 -31t132.5 -58.5q147 -85 233 -251.5t86 -416.5q0 -248 -85.5 -415t-241.5 -255q-64 -35 -134.5 -57.5t-148 -30.5t-123.5 -10t-119 -2h-430zM272 1980h242l135 -159l133 159h232l-238 -272h-266zM463 205h172q72 0 115 2.5 t103 16.5t110 42q116 65 166.5 191t50.5 313q0 184 -51.5 311t-170.5 193q-51 28 -115.5 42.5t-103.5 16.5t-104 2h-172v-1130z" />
<glyph unicode="&#x10f;" horiz-adv-x="1347" d="M102 557q0 269 128.5 431.5t367.5 162.5q249 0 315 -193v639h267v-1597h-209l-53 188q-27 -99 -114 -156t-224 -57q-229 0 -353.5 158.5t-124.5 423.5zM389 563q0 -178 64 -280.5t200 -102.5t200.5 103.5t64.5 281.5q0 177 -64.5 279t-200.5 102t-200 -102.5t-64 -280.5z M1294 1233l60 364h231l-123 -364h-168z" />
<glyph unicode="&#x110;" horiz-adv-x="1640" d="M37 696v207h213v637h430q80 0 127.5 -2t124.5 -10.5t145.5 -31t132.5 -58.5q320 -185 320 -668q0 -482 -328 -668q-64 -36 -131.5 -58.5t-142.5 -31t-121.5 -10.5t-126.5 -2h-430v696h-213zM520 205h176q65 0 105 2t106.5 17t116.5 44q115 65 166 190.5t51 311.5 q0 383 -221 504q-51 28 -116 42.5t-104 16.5t-104 2h-176v-432h334v-207h-334v-491z" />
<glyph unicode="&#x111;" horiz-adv-x="1347" d="M102 555q0 175 54 308t165.5 210.5t268.5 77.5q248 0 323 -190v331h-299v146h299v159h267v-159h176v-146h-176v-1292h-213l-49 188q-30 -102 -122.5 -157.5t-224.5 -55.5q-223 0 -346 157.5t-123 422.5zM385 565q0 -387 266 -387q72 0 124.5 28.5t83 82t45 121.5 t14.5 155q0 178 -63.5 281.5t-203.5 103.5t-203 -103.5t-63 -281.5z" />
<glyph unicode="&#x112;" horiz-adv-x="1249" d="M188 0v1540h922v-209h-651v-426h553v-209h-553v-487h684v-209h-955zM336 1735v176h622v-176h-622z" />
<glyph unicode="&#x113;" horiz-adv-x="1216" d="M102 555q0 278 138 439t387 161q137 0 239.5 -50.5t161.5 -146.5q28 -45 45 -98.5t23.5 -123t8 -116t1.5 -133.5h-725q0 -146 83 -226.5t241 -80.5q69 0 149 15.5t125 30.5l45 16h16v-209q-17 -5 -48 -13.5t-124.5 -22t-183.5 -13.5q-284 0 -430 139q-152 146 -152 432z M291 1311v164h639v-164h-639zM381 672h450q0 147 -50 221t-163 74t-168.5 -75.5t-68.5 -219.5z" />
<glyph unicode="&#x114;" horiz-adv-x="1249" d="M188 0v1540h922v-209h-651v-426h553v-209h-553v-487h684v-209h-955zM301 1980h191q0 -65 39.5 -99t115.5 -34t116 34t40 99h190q0 -135 -85 -209.5t-261 -74.5t-261 74.5t-85 209.5z" />
<glyph unicode="&#x115;" horiz-adv-x="1216" d="M102 555q0 278 138 439t387 161q137 0 239.5 -50.5t161.5 -146.5q28 -45 45 -98.5t23.5 -123t8 -116t1.5 -133.5h-725q0 -146 83 -226.5t241 -80.5q69 0 149 15.5t125 30.5l45 16h16v-209q-17 -5 -48 -13.5t-124.5 -22t-183.5 -13.5q-284 0 -430 139q-152 146 -152 432z M270 1597h191q0 -82 37 -120.5t112 -38.5q150 0 150 159h190q0 -307 -340 -307t-340 307zM381 672h450q0 147 -50 221t-163 74t-168.5 -75.5t-68.5 -219.5z" />
<glyph unicode="&#x116;" horiz-adv-x="1249" d="M188 0v1540h922v-209h-651v-426h553v-209h-553v-487h684v-209h-955zM504 1708v229h287v-229h-287z" />
<glyph unicode="&#x117;" horiz-adv-x="1216" d="M102 555q0 278 138 439t387 161q137 0 239.5 -50.5t161.5 -146.5q28 -45 45 -98.5t23.5 -123t8 -116t1.5 -133.5h-725q0 -146 83 -226.5t241 -80.5q69 0 149 15.5t125 30.5l45 16h16v-209q-17 -5 -48 -13.5t-124.5 -22t-183.5 -13.5q-284 0 -430 139q-152 146 -152 432z M381 672h450q0 147 -50 221t-163 74t-168.5 -75.5t-68.5 -219.5zM473 1298v242h275v-242h-275z" />
<glyph unicode="&#x118;" horiz-adv-x="1249" d="M188 0v1540h922v-209h-651v-426h553v-209h-553v-487h684v-236q-128 -23 -195 -65t-67 -96q0 -42 36.5 -63t94.5 -21q27 0 55.5 4.5t43.5 9.5l15 4h17v-133q-68 -19 -166 -19q-138 0 -215.5 47t-77.5 134q0 44 20 80t58.5 63t79.5 45.5t98 36.5h-752z" />
<glyph unicode="&#x119;" horiz-adv-x="1208" d="M102 563q0 278 135.5 435t383.5 157q275 0 397 -199q38 -61 56.5 -143t21 -141t2.5 -172h-721q0 -157 82 -241.5t241 -84.5q68 0 147 14t124 28l45 15h16v-198q-134 -39 -198 -97.5t-64 -119.5q0 -88 129 -88q29 0 58.5 4.5t44.5 9.5l14 4h16v-133q-68 -19 -166 -19 q-138 0 -215.5 46.5t-77.5 132.5q0 40 17 75t48 62t62.5 47t71.5 39q-37 -12 -121 -12q-255 0 -397 139q-152 149 -152 440zM375 664h452q0 307 -213 307q-113 0 -173 -82t-66 -225z" />
<glyph unicode="&#x11a;" horiz-adv-x="1249" d="M188 0v1540h922v-209h-651v-426h553v-209h-553v-487h684v-209h-955zM276 1980h242l135 -159l133 159h232l-238 -272h-266z" />
<glyph unicode="&#x11b;" horiz-adv-x="1216" d="M102 555q0 278 138 439t387 161q137 0 239.5 -50.5t161.5 -146.5q28 -45 45 -98.5t23.5 -123t8 -116t1.5 -133.5h-725q0 -146 83 -226.5t241 -80.5q69 0 149 15.5t125 30.5l45 16h16v-209q-17 -5 -48 -13.5t-124.5 -22t-183.5 -13.5q-284 0 -430 139q-152 146 -152 432z M262 1597h225l129 -184l129 184h213l-237 -307h-221zM381 672h450q0 147 -50 221t-163 74t-168.5 -75.5t-68.5 -219.5z" />
<glyph unicode="&#x11c;" horiz-adv-x="1527" d="M111 758q0 200 60.5 354t171 250.5t261.5 145t338 48.5q100 0 197 -13t145 -27l47 -13v-217h-16q-18 7 -50 18t-128 29.5t-187 18.5q-262 0 -405.5 -143.5t-143.5 -434.5q0 -289 138 -439.5t370 -150.5q51 0 101.5 7t75.5 15l24 7v397h-274v205h544v-754 q-23 -9 -63.5 -22.5t-164.5 -36t-245 -22.5q-180 0 -324.5 47.5t-250.5 141.5t-163.5 243.5t-57.5 345.5zM522 1708l238 272h266l238 -272h-238l-139 152l-137 -152h-228z" />
<glyph unicode="&#x11d;" horiz-adv-x="1351" d="M102 580q0 264 134 417.5t374 153.5q252 0 336 -188l74 163h164v-962q0 -64 -1.5 -100.5t-8 -93t-23.5 -102.5t-45 -85q-140 -201 -520 -201q-106 0 -205.5 15.5t-146.5 30.5l-46 16v229h17q22 -10 60.5 -25t141.5 -40t189 -25q100 0 174 31.5t111 91.5q19 31 28.5 75 t11 75.5t1.5 90.5v78q-34 -96 -121.5 -148t-218.5 -52q-224 0 -352 148t-128 407zM319 1290l238 307h221l238 -307h-217l-137 172l-138 -172h-205zM389 586q0 -365 266 -365q267 0 267 365q0 368 -267 368q-266 0 -266 -368z" />
<glyph unicode="&#x11e;" horiz-adv-x="1527" d="M111 758q0 200 60.5 354t171 250.5t261.5 145t338 48.5q100 0 197 -13t145 -27l47 -13v-217h-16q-18 7 -50 18t-128 29.5t-187 18.5q-262 0 -405.5 -143.5t-143.5 -434.5q0 -289 138 -439.5t370 -150.5q51 0 101.5 7t75.5 15l24 7v397h-274v205h544v-754 q-23 -9 -63.5 -22.5t-164.5 -36t-245 -22.5q-180 0 -324.5 47.5t-250.5 141.5t-163.5 243.5t-57.5 345.5zM547 1980h190q0 -65 40 -99t116 -34t116 34t40 99h190q0 -135 -85 -209.5t-261 -74.5t-261 74.5t-85 209.5z" />
<glyph unicode="&#x11f;" horiz-adv-x="1351" d="M102 580q0 264 134 417.5t374 153.5q252 0 336 -188l74 163h164v-962q0 -64 -1.5 -100.5t-8 -93t-23.5 -102.5t-45 -85q-140 -201 -520 -201q-106 0 -205.5 15.5t-146.5 30.5l-46 16v229h17q22 -10 60.5 -25t141.5 -40t189 -25q100 0 174 31.5t111 91.5q19 31 28.5 75 t11 75.5t1.5 90.5v78q-34 -96 -121.5 -148t-218.5 -52q-224 0 -352 148t-128 407zM328 1597h190q0 -159 150 -159q75 0 112 38.5t37 120.5h191q0 -307 -340 -307t-340 307zM389 586q0 -365 266 -365q267 0 267 365q0 368 -267 368q-266 0 -266 -368z" />
<glyph unicode="&#x120;" horiz-adv-x="1527" d="M111 758q0 200 60.5 354t171 250.5t261.5 145t338 48.5q100 0 197 -13t145 -27l47 -13v-217h-16q-18 7 -50 18t-128 29.5t-187 18.5q-262 0 -405.5 -143.5t-143.5 -434.5q0 -289 138 -439.5t370 -150.5q51 0 101.5 7t75.5 15l24 7v397h-274v205h544v-754 q-23 -9 -63.5 -22.5t-164.5 -36t-245 -22.5q-180 0 -324.5 47.5t-250.5 141.5t-163.5 243.5t-57.5 345.5zM750 1708v229h286v-229h-286z" />
<glyph unicode="&#x121;" horiz-adv-x="1351" d="M102 580q0 264 134 417.5t374 153.5q252 0 336 -188l74 163h164v-962q0 -64 -1.5 -100.5t-8 -93t-23.5 -102.5t-45 -85q-140 -201 -520 -201q-106 0 -205.5 15.5t-146.5 30.5l-46 16v229h17q22 -10 60.5 -25t141.5 -40t189 -25q100 0 174 31.5t111 91.5q19 31 28.5 75 t11 75.5t1.5 90.5v78q-34 -96 -121.5 -148t-218.5 -52q-224 0 -352 148t-128 407zM389 586q0 -365 266 -365q267 0 267 365q0 368 -267 368q-266 0 -266 -368zM530 1298v242h275v-242h-275z" />
<glyph unicode="&#x122;" horiz-adv-x="1527" d="M111 758q0 200 60.5 354t171 250.5t261.5 145t338 48.5q100 0 197 -13t145 -27l47 -13v-217h-16q-18 7 -50 18t-128 29.5t-187 18.5q-262 0 -405.5 -143.5t-143.5 -434.5q0 -289 138 -439.5t370 -150.5q51 0 101.5 7t75.5 15l24 7v397h-274v205h544v-754 q-23 -9 -63.5 -22.5t-164.5 -36t-245 -22.5q-180 0 -324.5 47.5t-250.5 141.5t-163.5 243.5t-57.5 345.5zM705 -418l77 254h250l-127 -254h-200z" />
<glyph unicode="&#x123;" horiz-adv-x="1351" d="M102 580q0 264 134 417.5t374 153.5q252 0 336 -188l74 163h164v-962q0 -64 -1.5 -100.5t-8 -93t-23.5 -102.5t-45 -85q-140 -201 -520 -201q-106 0 -205.5 15.5t-146.5 30.5l-46 16v229h17q22 -10 60.5 -25t141.5 -40t189 -25q100 0 174 31.5t111 91.5q19 31 28.5 75 t11 75.5t1.5 90.5v78q-34 -96 -121.5 -148t-218.5 -52q-224 0 -352 148t-128 407zM389 586q0 -365 266 -365q267 0 267 365q0 368 -267 368q-266 0 -266 -368zM526 1290l152 307h194l-86 -307h-260z" />
<glyph unicode="&#x124;" horiz-adv-x="1605" d="M188 0v1540h275v-635h680v635h274v-1540h-274v696h-680v-696h-275zM432 1708l238 272h266l238 -272h-238l-139 152l-138 -152h-227z" />
<glyph unicode="&#x125;" d="M168 0v1597h266v-647q62 201 320 201q227 0 327 -147q24 -34 38 -71t20 -86.5t7 -83t1 -99.5v-664h-270v668q0 44 -1 67.5t-10 57.5t-26 59q-57 82 -178 82q-58 0 -101.5 -17.5t-67 -42.5t-37.5 -61t-18 -64.5t-4 -60.5v-688h-266zM438 1290l238 307h221l238 -307h-217 l-138 172l-137 -172h-205z" />
<glyph unicode="&#x128;" horiz-adv-x="651" d="M-20 1708v158q4 3 10.5 8.5t28 20t45.5 25t60 19.5t73 9q66 0 162.5 -36t142.5 -36q44 0 90.5 18t71.5 36l24 18h17v-158q-4 -3 -10.5 -8.5t-28.5 -20t-46 -25t-60 -19.5t-73 -9q-66 0 -162.5 36t-142.5 36q-44 0 -90.5 -18t-71.5 -36l-24 -18h-16zM188 0v1540h275v-1540 h-275z" />
<glyph unicode="&#x129;" horiz-adv-x="602" d="M-20 1303v153q3 3 9.5 9t26.5 21t42 26t54.5 20.5t65.5 9.5q58 0 148.5 -38t132.5 -38q39 0 81 19t64 38l23 19h16v-153q-3 -3 -9.5 -9t-27 -21t-42 -26t-54.5 -20.5t-66 -9.5q-60 0 -148.5 37.5t-129.5 37.5q-40 0 -82.5 -19t-65.5 -37l-22 -19h-16zM168 0v1126h266 v-1126h-266z" />
<glyph unicode="&#x12a;" horiz-adv-x="651" d="M12 1735v176h623v-176h-623zM188 0v1540h275v-1540h-275z" />
<glyph unicode="&#x12b;" horiz-adv-x="602" d="M43 1311v164h516v-164h-516zM168 0v1126h266v-1126h-266z" />
<glyph unicode="&#x12c;" horiz-adv-x="651" d="M-23 1980h191q0 -65 40 -99t116 -34t115.5 34t39.5 99h191q0 -135 -85 -209.5t-261 -74.5t-261.5 74.5t-85.5 209.5zM188 0v1540h275v-1540h-275z" />
<glyph unicode="&#x12d;" horiz-adv-x="602" d="M-39 1597h191q0 -82 37 -120.5t112 -38.5q150 0 150 159h190q0 -307 -340 -307t-340 307zM168 0v1126h266v-1126h-266z" />
<glyph unicode="&#x12e;" horiz-adv-x="651" d="M4 -221q0 137 184 221v1540h275v-1540q-125 -22 -193.5 -74t-68.5 -112q0 -44 36 -65t95 -21q27 0 55.5 4.5t43.5 9.5l15 4h17v-133q-68 -19 -166 -19q-139 0 -216 47t-77 138z" />
<glyph unicode="&#x12f;" horiz-adv-x="602" d="M-25 -221q0 45 19 83.5t50 65t61 43.5t63 29v1126h266v-1126q-125 -22 -193.5 -74t-68.5 -112q0 -44 36 -65t95 -21q27 0 56 4.5t44 9.5l15 4h16v-133q-68 -19 -166 -19q-139 0 -216 47t-77 138zM164 1298v242h274v-242h-274z" />
<glyph unicode="&#x130;" horiz-adv-x="651" d="M180 1708v229h287v-229h-287zM188 0v1540h275v-1540h-275z" />
<glyph unicode="&#x131;" horiz-adv-x="602" d="M168 0v1126h266v-1126h-266z" />
<glyph unicode="&#x134;" horiz-adv-x="917" d="M33 12v209h16q90 -28 172 -28q134 0 193 86q19 29 28.5 68.5t11 68t1.5 84.5v1040h274v-1020q0 -79 -2.5 -124t-22 -116t-57.5 -124q-121 -168 -405 -168q-55 0 -107 6t-77 12zM219 1708l238 272h266l238 -272h-238l-139 152l-138 -152h-227z" />
<glyph unicode="&#x135;" horiz-adv-x="614" d="M-86 -197h16q45 -8 88 -8q100 0 138 66q12 21 17.5 49t6 45t0.5 57v1114h266v-1101q0 -60 -1.5 -93t-13 -83.5t-34.5 -90.5q-92 -159 -358 -159q-35 0 -66 2.5t-45 4.5l-14 3v194zM-35 1290l238 307h221l238 -307h-218l-137 172l-137 -172h-205z" />
<glyph unicode="&#x136;" horiz-adv-x="1429" d="M188 0v1540h271v-688l610 688h299l-573 -639l585 -901h-323l-447 709l-151 -156v-553h-271zM512 -418l78 254h250l-127 -254h-201z" />
<glyph unicode="&#x137;" horiz-adv-x="1228" d="M168 0v1597h266v-942l422 471h295l-422 -458l438 -668h-311l-307 492l-115 -115v-377h-266zM406 -418l77 254h250l-127 -254h-200z" />
<glyph unicode="&#x138;" horiz-adv-x="1228" d="M168 0v1126h266v-471l430 471h287l-422 -452l438 -674h-305l-309 500l-119 -119v-381h-266z" />
<glyph unicode="&#x139;" horiz-adv-x="1101" d="M188 0v1540h275v-1327h610v-213h-885zM209 1708l211 272h332l-312 -272h-231z" />
<glyph unicode="&#x13a;" horiz-adv-x="602" d="M168 0v1597h266v-1597h-266zM197 1761l176 307h295l-262 -307h-209z" />
<glyph unicode="&#x13b;" horiz-adv-x="1101" d="M188 0v1540h275v-1327h610v-213h-885zM451 -418l77 254h250l-127 -254h-200z" />
<glyph unicode="&#x13c;" horiz-adv-x="602" d="M98 -418l78 254h250l-127 -254h-201zM168 0v1597h266v-1597h-266z" />
<glyph unicode="&#x13d;" horiz-adv-x="1101" d="M188 0v1540h275v-1327h610v-213h-885zM598 1032l86 508h246l-148 -508h-184z" />
<glyph unicode="&#x13e;" horiz-adv-x="602" d="M168 0v1597h266v-1597h-266zM549 1233l59 364h232l-123 -364h-168z" />
<glyph unicode="&#x13f;" horiz-adv-x="1355" d="M188 0v1540h275v-1327h610v-213h-885zM940 569v271h266v-271h-266z" />
<glyph unicode="&#x140;" horiz-adv-x="958" d="M168 0v1597h266v-1597h-266zM647 434v271h266v-271h-266z" />
<glyph unicode="&#x141;" horiz-adv-x="1165" d="M37 610v201l217 76v653h274v-559l314 111v-201l-314 -111v-567h609v-213h-883v686z" />
<glyph unicode="&#x142;" horiz-adv-x="782" d="M37 612v201l221 76v708h266v-618l221 76v-201l-221 -76v-778h-266v688z" />
<glyph unicode="&#x143;" horiz-adv-x="1622" d="M188 0v1540h267l737 -1094v1094h242v-1540h-242l-762 1114v-1114h-242zM700 1708l211 272h332l-311 -272h-232z" />
<glyph unicode="&#x144;" horiz-adv-x="1306" d="M168 0v1126h209l49 -192q61 217 334 217q225 0 325 -147q24 -34 38 -71t20 -86.5t7 -83t1 -99.5v-664h-270v668q0 44 -1 67.5t-10 57.5t-26 59q-57 82 -178 82q-58 0 -101.5 -17.5t-67 -42.5t-37.5 -61t-18 -64.5t-4 -60.5v-688h-270zM549 1290l176 307h295l-262 -307 h-209z" />
<glyph unicode="&#x145;" horiz-adv-x="1622" d="M188 0v1540h267l737 -1094v1094h242v-1540h-242l-762 1114v-1114h-242zM610 -418l78 254h250l-127 -254h-201z" />
<glyph unicode="&#x146;" horiz-adv-x="1306" d="M168 0v1126h209l49 -192q61 217 334 217q225 0 325 -147q24 -34 38 -71t20 -86.5t7 -83t1 -99.5v-664h-270v668q0 44 -1 67.5t-10 57.5t-26 59q-57 82 -178 82q-58 0 -101.5 -17.5t-67 -42.5t-37.5 -61t-18 -64.5t-4 -60.5v-688h-270zM451 -418l77 254h250l-127 -254 h-200z" />
<glyph unicode="&#x147;" horiz-adv-x="1622" d="M188 0v1540h267l737 -1094v1094h242v-1540h-242l-762 1114v-1114h-242zM440 1980h242l135 -159l133 159h232l-238 -272h-266z" />
<glyph unicode="&#x148;" horiz-adv-x="1306" d="M168 0v1126h209l49 -192q61 217 334 217q225 0 325 -147q24 -34 38 -71t20 -86.5t7 -83t1 -99.5v-664h-270v668q0 44 -1 67.5t-10 57.5t-26 59q-57 82 -178 82q-58 0 -101.5 -17.5t-67 -42.5t-37.5 -61t-18 -64.5t-4 -60.5v-688h-270zM303 1597h225l129 -184l129 184h213 l-237 -307h-221z" />
<glyph unicode="&#x14c;" horiz-adv-x="1654" d="M111 768q0 376 188 588.5t532 212.5q343 0 528 -212.5t185 -584.5q0 -375 -188.5 -588t-532.5 -213q-343 0 -527.5 212.5t-184.5 584.5zM401 770q0 -295 109 -444.5t317 -149.5t317 149.5t109 444.5t-109 444.5t-317 149.5t-317 -149.5t-109 -444.5zM467 1735v176h721 v-176h-721z" />
<glyph unicode="&#x14d;" horiz-adv-x="1306" d="M102 561q0 288 143.5 441t409.5 153q262 0 405.5 -150.5t143.5 -439.5q0 -288 -143.5 -441t-409.5 -153q-262 0 -405.5 150.5t-143.5 439.5zM332 1311v164h639v-164h-639zM389 563q0 -194 65.5 -296.5t198.5 -102.5q136 0 200.5 105t64.5 294q0 194 -66 297t-199 103 q-136 0 -200 -105t-64 -295z" />
<glyph unicode="&#x150;" horiz-adv-x="1654" d="M111 768q0 376 188 588.5t532 212.5q343 0 528 -212.5t185 -584.5q0 -375 -188.5 -588t-532.5 -213q-343 0 -527.5 212.5t-184.5 584.5zM401 770q0 -295 109 -444.5t317 -149.5t317 149.5t109 444.5t-109 444.5t-317 149.5t-317 -149.5t-109 -444.5zM535 1708l194 272 h246l-248 -272h-192zM924 1708l215 272h245l-268 -272h-192z" />
<glyph unicode="&#x151;" horiz-adv-x="1306" d="M102 561q0 288 143.5 441t409.5 153q262 0 405.5 -150.5t143.5 -439.5q0 -288 -143.5 -441t-409.5 -153q-262 0 -405.5 150.5t-143.5 439.5zM367 1290l182 307h246l-236 -307h-192zM389 563q0 -194 65.5 -296.5t198.5 -102.5q136 0 200.5 105t64.5 294q0 194 -66 297 t-199 103q-136 0 -200 -105t-64 -295zM739 1290l203 307h246l-256 -307h-193z" />
<glyph unicode="&#x152;" horiz-adv-x="2222" d="M111 768q0 224 70 390t204 261q60 43 125.5 69.5t136.5 36.5t113 12.5t108 2.5h1215v-207h-789q7 -4 18.5 -12t43 -42t57.5 -78t52 -123.5t36 -174.5h484v-207h-478q-5 -81 -19.5 -151.5t-34.5 -118.5t-42.5 -88t-44.5 -63.5t-40 -39.5t-29 -22l-11 -6h830v-207h-1262 q-65 0 -106.5 2.5t-113 12.5t-136.5 36.5t-123 69.5q-131 97 -197.5 264t-66.5 383zM401 770q0 -292 106.5 -436t307.5 -144t307.5 144t106.5 436t-106.5 436t-307.5 144t-307.5 -144t-106.5 -436z" />
<glyph unicode="&#x153;" horiz-adv-x="1996" d="M102 559q0 282 143 439t384 157q150 0 255 -60.5t148 -172.5q3 9 10 25t37 56t69.5 71t112 56t160.5 25q130 0 228.5 -52t156.5 -147q38 -61 56.5 -143t21 -141t2.5 -172h-721q0 -157 82 -241.5t242 -84.5q68 0 146.5 14t123.5 28l45 15h17v-198q-17 -5 -48 -13.5 t-123 -22t-180 -13.5q-171 0 -282.5 52.5t-161.5 174.5q-45 -108 -151.5 -174t-260.5 -66q-233 0 -372.5 154t-139.5 434zM385 565q0 -397 256 -397t256 393q0 397 -256 397t-256 -393zM1163 664h453q0 307 -213 307q-113 0 -173.5 -82t-66.5 -225z" />
<glyph unicode="&#x154;" horiz-adv-x="1413" d="M188 0v1540h512q60 0 97 -1.5t98 -9t114.5 -27.5t100.5 -52q172 -117 172 -365q0 -173 -79.5 -281.5t-221.5 -154.5l379 -649h-307l-336 610h-258v-610h-271zM459 815h237q143 0 209 45q94 64 94 215q0 147 -94 213q-32 22 -74 33t-67 12.5t-68 1.5h-237v-520zM594 1708 l211 272h332l-312 -272h-231z" />
<glyph unicode="&#x155;" horiz-adv-x="841" d="M168 0v1126h205l53 -221q29 131 117.5 182.5t226.5 51.5h29v-254q-56 12 -119 12q-50 0 -89.5 -11t-64.5 -26t-43 -40.5t-26.5 -46t-13 -52t-5 -47.5t-0.5 -43v-631h-270zM319 1290l177 307h295l-263 -307h-209z" />
<glyph unicode="&#x158;" horiz-adv-x="1413" d="M188 0v1540h512q60 0 97 -1.5t98 -9t114.5 -27.5t100.5 -52q172 -117 172 -365q0 -173 -79.5 -281.5t-221.5 -154.5l379 -649h-307l-336 610h-258v-610h-271zM334 1980h241l136 -159l133 159h231l-237 -272h-267zM459 815h237q143 0 209 45q94 64 94 215q0 147 -94 213 q-32 22 -74 33t-67 12.5t-68 1.5h-237v-520z" />
<glyph unicode="&#x159;" horiz-adv-x="841" d="M74 1597h225l129 -184l129 184h213l-238 -307h-221zM168 0v1126h205l53 -221q29 131 117.5 182.5t226.5 51.5h29v-254q-56 12 -119 12q-50 0 -89.5 -11t-64.5 -26t-43 -40.5t-26.5 -46t-13 -52t-5 -47.5t-0.5 -43v-631h-270z" />
<glyph unicode="&#x15a;" horiz-adv-x="1216" d="M125 1139q0 196 142.5 306.5t394.5 110.5q91 0 184 -14t140 -28l48 -15v-209h-16q-20 8 -55 19.5t-127 31t-166 19.5q-126 0 -192 -49.5t-66 -134.5q0 -50 24 -90.5t64 -70t92.5 -56.5t110 -53t115 -55t110 -68t92.5 -86t64 -115t24 -150q0 -112 -43.5 -198.5 t-122 -140.5t-183.5 -81.5t-233 -27.5q-105 0 -204 17t-146 35l-47 17v217h16q23 -10 63 -25t143.5 -40t185.5 -25q132 0 208 59t76 158q0 67 -38.5 120t-100 89t-135.5 70t-148 73.5t-135.5 88t-100 126t-38.5 175.5zM496 1708l211 272h331l-311 -272h-231z" />
<glyph unicode="&#x15b;" horiz-adv-x="1003" d="M121 37v217h16q19 -8 52 -19.5t116.5 -31t147.5 -19.5q88 0 132 31.5t44 83.5q0 41 -28 72.5t-73 53.5t-99 44t-108 50t-99 63.5t-73 93.5t-28 133q0 155 116.5 244.5t327.5 89.5q71 0 141.5 -10.5t105.5 -20.5l34 -10v-217h-17q-16 6 -43.5 15.5t-99 25.5t-127.5 16 q-83 0 -125.5 -28.5t-42.5 -73.5q0 -35 28 -62.5t73 -47.5t99 -41.5t108 -51t99 -68t73 -100.5t28 -141q0 -173 -124.5 -258.5t-336.5 -85.5q-87 0 -166 13t-115 27zM422 1290l176 307h295l-262 -307h-209z" />
<glyph unicode="&#x15c;" horiz-adv-x="1216" d="M125 1139q0 196 142.5 306.5t394.5 110.5q91 0 184 -14t140 -28l48 -15v-209h-16q-20 8 -55 19.5t-127 31t-166 19.5q-126 0 -192 -49.5t-66 -134.5q0 -50 24 -90.5t64 -70t92.5 -56.5t110 -53t115 -55t110 -68t92.5 -86t64 -115t24 -150q0 -112 -43.5 -198.5 t-122 -140.5t-183.5 -81.5t-233 -27.5q-105 0 -204 17t-146 35l-47 17v217h16q23 -10 63 -25t143.5 -40t185.5 -25q132 0 208 59t76 158q0 67 -38.5 120t-100 89t-135.5 70t-148 73.5t-135.5 88t-100 126t-38.5 175.5zM236 1708l237 272h266l238 -272h-238l-139 152 l-137 -152h-227z" />
<glyph unicode="&#x15d;" horiz-adv-x="1003" d="M121 37v217h16q19 -8 52 -19.5t116.5 -31t147.5 -19.5q88 0 132 31.5t44 83.5q0 41 -28 72.5t-73 53.5t-99 44t-108 50t-99 63.5t-73 93.5t-28 133q0 155 116.5 244.5t327.5 89.5q71 0 141.5 -10.5t105.5 -20.5l34 -10v-217h-17q-16 6 -43.5 15.5t-99 25.5t-127.5 16 q-83 0 -125.5 -28.5t-42.5 -73.5q0 -35 28 -62.5t73 -47.5t99 -41.5t108 -51t99 -68t73 -100.5t28 -141q0 -173 -124.5 -258.5t-336.5 -85.5q-87 0 -166 13t-115 27zM176 1290l238 307h221l237 -307h-217l-137 172l-137 -172h-205z" />
<glyph unicode="&#x15e;" horiz-adv-x="1216" d="M125 1139q0 196 142.5 306.5t394.5 110.5q91 0 184 -14t140 -28l48 -15v-209h-16q-20 8 -55 19.5t-127 31t-166 19.5q-126 0 -192 -49.5t-66 -134.5q0 -50 24 -90.5t64 -70t92.5 -56.5t110 -53t115 -55t110 -68t92.5 -86t64 -115t24 -150q0 -191 -122 -302.5t-331 -137.5 q119 -69 119 -182q0 -95 -79 -155.5t-224 -60.5q-25 0 -53 2t-43 4l-15 3v151h17q49 -12 94 -12q56 0 87.5 24.5t31.5 71.5q0 62 -70 146q-103 1 -200.5 18t-143.5 34l-47 17v217h16q23 -10 63 -25t143.5 -40t185.5 -25q132 0 208 59t76 158q0 67 -38.5 120t-100 89 t-135.5 70t-148 73.5t-135.5 88t-100 126t-38.5 175.5z" />
<glyph unicode="&#x15f;" horiz-adv-x="1003" d="M121 37v217h16q19 -8 52 -19.5t116.5 -31t147.5 -19.5q88 0 132 31.5t44 83.5q0 41 -28 72.5t-73 53.5t-99 44t-108 50t-99 63.5t-73 93.5t-28 133q0 155 116.5 244.5t327.5 89.5q71 0 141.5 -10.5t105.5 -20.5l34 -10v-217h-17q-16 6 -43.5 15.5t-99 25.5t-127.5 16 q-83 0 -125.5 -28.5t-42.5 -73.5q0 -35 28 -62.5t73 -47.5t99 -41.5t108 -51t99 -68t73 -100.5t28 -141q0 -148 -92 -231.5t-254 -104.5q119 -67 119 -182q0 -95 -79 -155.5t-224 -60.5q-25 0 -53 2t-43 4l-15 3v151h16q50 -12 95 -12q56 0 87 24.5t31 71.5q0 63 -69 146 q-81 2 -155 15t-108 25z" />
<glyph unicode="&#x160;" horiz-adv-x="1216" d="M125 1139q0 196 142.5 306.5t394.5 110.5q91 0 184 -14t140 -28l48 -15v-209h-16q-20 8 -55 19.5t-127 31t-166 19.5q-126 0 -192 -49.5t-66 -134.5q0 -50 24 -90.5t64 -70t92.5 -56.5t110 -53t115 -55t110 -68t92.5 -86t64 -115t24 -150q0 -112 -43.5 -198.5 t-122 -140.5t-183.5 -81.5t-233 -27.5q-105 0 -204 17t-146 35l-47 17v217h16q23 -10 63 -25t143.5 -40t185.5 -25q132 0 208 59t76 158q0 67 -38.5 120t-100 89t-135.5 70t-148 73.5t-135.5 88t-100 126t-38.5 175.5zM236 1980h241l135 -159l133 159h232l-238 -272h-266z " />
<glyph unicode="&#x161;" horiz-adv-x="1003" d="M121 37v217h16q19 -8 52 -19.5t116.5 -31t147.5 -19.5q88 0 132 31.5t44 83.5q0 41 -28 72.5t-73 53.5t-99 44t-108 50t-99 63.5t-73 93.5t-28 133q0 155 116.5 244.5t327.5 89.5q71 0 141.5 -10.5t105.5 -20.5l34 -10v-217h-17q-16 6 -43.5 15.5t-99 25.5t-127.5 16 q-83 0 -125.5 -28.5t-42.5 -73.5q0 -35 28 -62.5t73 -47.5t99 -41.5t108 -51t99 -68t73 -100.5t28 -141q0 -173 -124.5 -258.5t-336.5 -85.5q-87 0 -166 13t-115 27zM176 1597h225l129 -184l129 184h213l-237 -307h-221z" />
<glyph unicode="&#x162;" horiz-adv-x="1224" d="M45 1327v213h1135v-213h-430v-1327h-86q135 -68 135 -190q0 -95 -79 -155.5t-224 -60.5q-25 0 -53 2t-43 4l-15 3v151h16q50 -12 95 -12q56 0 87 24.5t31 71.5q0 34 -19 71t-63 91h-57v1327h-430z" />
<glyph unicode="&#x163;" horiz-adv-x="935" d="M49 913v197h205v291l266 78v-369h311v-197h-311v-507q0 -47 1 -69.5t6.5 -51t17.5 -47.5q33 -54 121 -54q36 0 73 7t57 15l19 7h16v-205q-65 -18 -159 -22q106 -68 106 -176q0 -95 -79 -155.5t-224 -60.5q-25 0 -52.5 2t-42.5 4l-15 3v151h16q49 -12 94 -12 q56 0 87.5 24.5t31.5 71.5q0 59 -76 154q-152 22 -215 119q-23 36 -34.5 86.5t-13 88.5t-1.5 115v512h-205z" />
<glyph unicode="&#x164;" horiz-adv-x="1224" d="M45 1327v213h1135v-213h-430v-1327h-275v1327h-430zM240 1980h241l135 -159l134 159h231l-238 -272h-266z" />
<glyph unicode="&#x165;" horiz-adv-x="935" d="M49 913v197h205v291l266 78v-369h311v-197h-311v-507q0 -47 1 -69.5t6.5 -51t17.5 -47.5q33 -54 121 -54q36 0 73 7t57 15l19 7h16v-205q-85 -24 -204 -24q-240 0 -324 127q-23 36 -34.5 86.5t-13 88.5t-1.5 115v512h-205zM635 1233l59 364h232l-123 -364h-168z" />
<glyph unicode="&#x168;" horiz-adv-x="1572" d="M188 610v930h275v-975q0 -71 9 -127t32 -106.5t60.5 -83.5t98 -52.5t140.5 -19.5t140.5 19.5t98 52.5t60.5 83.5t32 106.5t9 127v975h241v-930q0 -56 -0.5 -86t-7 -88.5t-18.5 -99.5t-36.5 -91.5t-59.5 -92.5q-156 -181 -478 -181q-320 0 -473 181q-35 42 -60 92.5 t-37 92t-18 99t-7 89t-1 85.5zM442 1708v158q4 3 10.5 8.5t28 20t45.5 25t60 19.5t73 9q66 0 163 -36t143 -36q44 0 90.5 18t70.5 36l25 18h16v-158q-4 -3 -10.5 -8.5t-28 -20t-45.5 -25t-60 -19.5t-73 -9q-66 0 -162.5 36t-142.5 36q-44 0 -90.5 -18t-70.5 -36l-25 -18h-17 z" />
<glyph unicode="&#x169;" d="M168 463v663h270v-667q0 -44 1 -68t10 -58t26 -59q57 -81 184 -81q205 0 205 245v688h271v-1126h-209l-49 193q-26 -100 -109.5 -159t-222.5 -59q-217 0 -312 140q-24 34 -38 72t-19.5 90t-6.5 84.5t-1 101.5zM330 1303v153q3 3 9.5 9t26.5 21t42 26t54.5 20.5t65.5 9.5 q58 0 148.5 -38t132.5 -38q39 0 81 19t64 38l23 19h16v-153q-3 -3 -9.5 -9t-26.5 -21t-42 -26t-54.5 -20.5t-65.5 -9.5q-60 0 -149 37.5t-130 37.5q-40 0 -82.5 -19t-65.5 -37l-22 -19h-16z" />
<glyph unicode="&#x16a;" horiz-adv-x="1572" d="M188 610v930h275v-975q0 -71 9 -127t32 -106.5t60.5 -83.5t98 -52.5t140.5 -19.5t140.5 19.5t98 52.5t60.5 83.5t32 106.5t9 127v975h241v-930q0 -56 -0.5 -86t-7 -88.5t-18.5 -99.5t-36.5 -91.5t-59.5 -92.5q-156 -181 -478 -181q-320 0 -473 181q-35 42 -60 92.5 t-37 92t-18 99t-7 89t-1 85.5zM426 1735v176h721v-176h-721z" />
<glyph unicode="&#x16b;" d="M168 463v663h270v-667q0 -44 1 -68t10 -58t26 -59q57 -81 184 -81q205 0 205 245v688h271v-1126h-209l-49 193q-26 -100 -109.5 -159t-222.5 -59q-217 0 -312 140q-24 34 -38 72t-19.5 90t-6.5 84.5t-1 101.5zM332 1311v164h639v-164h-639z" />
<glyph unicode="&#x16c;" horiz-adv-x="1572" d="M188 610v930h275v-975q0 -71 9 -127t32 -106.5t60.5 -83.5t98 -52.5t140.5 -19.5t140.5 19.5t98 52.5t60.5 83.5t32 106.5t9 127v975h241v-930q0 -56 -0.5 -86t-7 -88.5t-18.5 -99.5t-36.5 -91.5t-59.5 -92.5q-156 -181 -478 -181q-320 0 -473 181q-35 42 -60 92.5 t-37 92t-18 99t-7 89t-1 85.5zM440 1980h191q0 -65 39.5 -99t115.5 -34t116 34t40 99h191q0 -135 -85.5 -209.5t-261.5 -74.5t-261 74.5t-85 209.5z" />
<glyph unicode="&#x16d;" d="M168 463v663h270v-667q0 -44 1 -68t10 -58t26 -59q57 -81 184 -81q205 0 205 245v688h271v-1126h-209l-49 193q-26 -100 -109.5 -159t-222.5 -59q-217 0 -312 140q-24 34 -38 72t-19.5 90t-6.5 84.5t-1 101.5zM311 1597h191q0 -82 37 -120.5t112 -38.5q150 0 150 159h190 q0 -307 -340 -307t-340 307z" />
<glyph unicode="&#x16e;" horiz-adv-x="1572" d="M188 610v930h275v-975q0 -71 9 -127t32 -106.5t60.5 -83.5t98 -52.5t140.5 -19.5t140.5 19.5t98 52.5t60.5 83.5t32 106.5t9 127v975h241v-930q0 -56 -0.5 -86t-7 -88.5t-18.5 -99.5t-36.5 -91.5t-59.5 -92.5q-156 -181 -478 -181q-320 0 -473 181q-35 42 -60 92.5 t-37 92t-18 99t-7 89t-1 85.5zM520 1810q0 102 72 164t194 62t194.5 -62t72.5 -164t-72.5 -163.5t-194.5 -61.5t-194 61.5t-72 163.5zM680 1810q0 -47 28 -75.5t78 -28.5t78.5 28.5t28.5 75.5t-28.5 76t-78.5 29t-78 -29t-28 -76z" />
<glyph unicode="&#x16f;" d="M168 463v663h270v-667q0 -44 1 -68t10 -58t26 -59q57 -81 184 -81q205 0 205 245v688h271v-1126h-209l-49 193q-26 -100 -109.5 -159t-222.5 -59q-217 0 -312 140q-24 34 -38 72t-19.5 90t-6.5 84.5t-1 101.5zM389 1419q0 97 70 157t192 60t192 -60t70 -157t-70 -157 t-192 -60t-192 60t-70 157zM547 1419q0 -45 28 -73.5t76 -28.5q49 0 77 28.5t28 73.5t-28.5 74t-76.5 29t-76 -29t-28 -74z" />
<glyph unicode="&#x170;" horiz-adv-x="1572" d="M188 610v930h275v-975q0 -71 9 -127t32 -106.5t60.5 -83.5t98 -52.5t140.5 -19.5t140.5 19.5t98 52.5t60.5 83.5t32 106.5t9 127v975h241v-930q0 -56 -0.5 -86t-7 -88.5t-18.5 -99.5t-36.5 -91.5t-59.5 -92.5q-156 -181 -478 -181q-320 0 -473 181q-35 42 -60 92.5 t-37 92t-18 99t-7 89t-1 85.5zM494 1708l194 272h246l-248 -272h-192zM883 1708l215 272h245l-268 -272h-192z" />
<glyph unicode="&#x171;" d="M168 463v663h270v-667q0 -44 1 -68t10 -58t26 -59q57 -81 184 -81q205 0 205 245v688h271v-1126h-209l-49 193q-26 -100 -109.5 -159t-222.5 -59q-217 0 -312 140q-24 34 -38 72t-19.5 90t-6.5 84.5t-1 101.5zM367 1290l182 307h246l-236 -307h-192zM739 1290l203 307 h246l-256 -307h-193z" />
<glyph unicode="&#x172;" horiz-adv-x="1572" d="M188 618v922h275v-975q0 -71 9 -127t32 -106.5t60.5 -83.5t98 -52.5t140.5 -19.5t140.5 19.5t98 52.5t60.5 83.5t32 106.5t9 127v975h241v-922q0 -50 -0.5 -76t-4.5 -77.5t-11 -84.5t-22 -80.5t-36.5 -82.5t-55 -73t-76.5 -68q-47 -34 -120.5 -68.5t-122.5 -56t-86.5 -57 t-37.5 -78.5q0 -88 129 -88q28 0 57.5 4.5t44.5 9.5l15 4h16v-133q-68 -19 -166 -19q-138 0 -215.5 47.5t-77.5 135.5q0 134 185 200q-164 0 -284 38.5t-204 136.5q-30 35 -52 73t-35 81t-20.5 77t-11 82.5t-4 75.5t-0.5 77z" />
<glyph unicode="&#x173;" d="M168 463v663h270v-667q0 -44 1 -68t10 -58t26 -59q57 -81 184 -81q205 0 205 245v688h271v-1153q-128 -23 -195.5 -65t-67.5 -96q0 -42 37 -63t95 -21q27 0 55.5 4.5t43.5 9.5l15 4h17v-133q-68 -19 -166 -19q-138 0 -215.5 47t-77.5 134q0 44 20 80t58.5 63t79.5 45.5 t98 36.5h-6l-49 193q-26 -100 -109.5 -159t-222.5 -59q-217 0 -312 140q-24 34 -38 72t-19.5 90t-6.5 84.5t-1 101.5z" />
<glyph unicode="&#x174;" horiz-adv-x="2138" d="M53 1540h291l303 -1196l311 1159h275l311 -1159l303 1196h238l-422 -1540h-279l-315 1171l-315 -1171h-279zM723 1708l238 272h266l237 -272h-237l-140 152l-137 -152h-227z" />
<glyph unicode="&#x175;" horiz-adv-x="1849" d="M88 1126h283l213 -823l229 799h266l230 -799l213 823h237l-323 -1126h-279l-233 811l-234 -811h-278zM598 1290l238 307h221l237 -307h-217l-137 172l-137 -172h-205z" />
<glyph unicode="&#x176;" horiz-adv-x="1355" d="M20 1540h320l369 -692l368 692h258l-520 -934v-606h-274v602zM330 1708l237 272h267l237 -272h-237l-140 152l-137 -152h-227z" />
<glyph unicode="&#x177;" horiz-adv-x="1249" d="M68 1126h303l278 -798l287 798h246l-594 -1527h-271l185 421zM299 1290l238 307h221l237 -307h-217l-137 172l-137 -172h-205z" />
<glyph unicode="&#x178;" horiz-adv-x="1355" d="M20 1540h320l369 -692l368 692h258l-520 -934v-606h-274v602zM336 1708v229h250v-229h-250zM815 1708v229h250v-229h-250z" />
<glyph unicode="&#x179;" horiz-adv-x="1323" d="M106 0v197l766 1134h-741v209h1065v-188l-770 -1143h786v-209h-1106zM545 1708l211 272h331l-311 -272h-231z" />
<glyph unicode="&#x17a;" horiz-adv-x="1085" d="M119 0v213l524 700h-516v197h836v-197l-537 -716h545v-197h-852zM455 1290l176 307h295l-262 -307h-209z" />
<glyph unicode="&#x17b;" horiz-adv-x="1323" d="M106 0v197l766 1134h-741v209h1065v-188l-770 -1143h786v-209h-1106zM512 1708v229h287v-229h-287z" />
<glyph unicode="&#x17c;" horiz-adv-x="1085" d="M119 0v213l524 700h-516v197h836v-197l-537 -716h545v-197h-852zM420 1298v242h274v-242h-274z" />
<glyph unicode="&#x17d;" horiz-adv-x="1323" d="M106 0v197l766 1134h-741v209h1065v-188l-770 -1143h786v-209h-1106zM285 1980h241l136 -159l133 159h231l-238 -272h-266z" />
<glyph unicode="&#x17e;" horiz-adv-x="1085" d="M119 0v213l524 700h-516v197h836v-197l-537 -716h545v-197h-852zM209 1597h225l129 -184l129 184h213l-237 -307h-222z" />
<glyph unicode="&#x18f;" horiz-adv-x="1476" d="M119 852h966q0 246 -119 375t-350 129q-88 0 -187 -18t-155 -36l-55 -18h-18v209q20 7 57.5 17.5t152.5 28t230 17.5q366 0 537 -182q188 -197 188 -600q0 -378 -171 -590.5t-482 -212.5q-171 0 -296.5 67t-197.5 195q-35 62 -56.5 132.5t-30.5 159t-11 152.5t-2 175z M393 655q0 -483 324 -483q175 0 267.5 128t100.5 355h-692z" />
<glyph unicode="&#x192;" horiz-adv-x="851" d="M-86 -190h16q58 -15 113 -15q99 0 135 68q11 21 16 48.5t6 48t1 63.5v890h-215v197h215v68q0 64 1.5 97.5t13 83t34.5 89.5q43 73 127.5 113.5t230.5 40.5q46 0 90.5 -4t65.5 -8l22 -5v-201h-16q-77 21 -143 21q-105 0 -140 -72q-10 -21 -14.5 -47.5t-5 -47t-0.5 -64.5 v-64h319v-197h-319v-884q0 -66 -1.5 -100t-13 -83.5t-34.5 -89.5q-92 -157 -361 -157q-38 0 -74 3t-53 6l-16 3v199z" />
<glyph unicode="&#x218;" horiz-adv-x="1216" d="M125 1139q0 196 142.5 306.5t394.5 110.5q91 0 184 -14t140 -28l48 -15v-209h-16q-20 8 -55 19.5t-127 31t-166 19.5q-126 0 -192 -49.5t-66 -134.5q0 -50 24 -90.5t64 -70t92.5 -56.5t110 -53t115 -55t110 -68t92.5 -86t64 -115t24 -150q0 -112 -43.5 -198.5 t-122 -140.5t-183.5 -81.5t-233 -27.5q-105 0 -204 17t-146 35l-47 17v217h16q23 -10 63 -25t143.5 -40t185.5 -25q132 0 208 59t76 158q0 67 -38.5 120t-100 89t-135.5 70t-148 73.5t-135.5 88t-100 126t-38.5 175.5zM389 -418l78 254h250l-127 -254h-201z" />
<glyph unicode="&#x219;" horiz-adv-x="1003" d="M121 37v217h16q19 -8 52 -19.5t116.5 -31t147.5 -19.5q88 0 132 31.5t44 83.5q0 41 -28 72.5t-73 53.5t-99 44t-108 50t-99 63.5t-73 93.5t-28 133q0 155 116.5 244.5t327.5 89.5q71 0 141.5 -10.5t105.5 -20.5l34 -10v-217h-17q-16 6 -43.5 15.5t-99 25.5t-127.5 16 q-83 0 -125.5 -28.5t-42.5 -73.5q0 -35 28 -62.5t73 -47.5t99 -41.5t108 -51t99 -68t73 -100.5t28 -141q0 -173 -124.5 -258.5t-336.5 -85.5q-87 0 -166 13t-115 27zM287 -418l78 254h249l-127 -254h-200z" />
<glyph unicode="&#x21a;" horiz-adv-x="1224" d="M45 1327v213h1135v-213h-430v-1327h-275v1327h-430zM414 -418l78 254h249l-127 -254h-200z" />
<glyph unicode="&#x21b;" horiz-adv-x="935" d="M49 913v197h205v291l266 78v-369h311v-197h-311v-507q0 -47 1 -69.5t6.5 -51t17.5 -47.5q33 -54 121 -54q36 0 73 7t57 15l19 7h16v-205q-85 -24 -204 -24q-240 0 -324 127q-23 36 -34.5 86.5t-13 88.5t-1.5 115v512h-205zM393 -418l78 254h250l-127 -254h-201z" />
<glyph unicode="&#x2c6;" horiz-adv-x="1228" d="M266 1290l238 307h221l238 -307h-218l-137 172l-137 -172h-205z" />
<glyph unicode="&#x2da;" horiz-adv-x="1228" d="M352 1458q0 97 70 157t192 60t192.5 -60t70.5 -157t-70.5 -157t-192.5 -60t-192 60t-70 157zM510 1458q0 -45 28 -73.5t76 -28.5q49 0 77 28.5t28 73.5t-28.5 74t-76.5 29t-76 -29t-28 -74z" />
<glyph unicode="&#x2dc;" horiz-adv-x="1228" d="M293 1303v153q3 3 9.5 9t27 21t42 26t54.5 20.5t66 9.5q58 0 148 -38t132 -38q39 0 81 19t65 38l22 19h16v-153q-3 -3 -9.5 -9t-26.5 -21t-42 -26t-54.5 -20.5t-65.5 -9.5q-60 0 -149 37.5t-130 37.5q-40 0 -82.5 -19t-64.5 -37l-23 -19h-16z" />
<glyph unicode="&#x1e80;" horiz-adv-x="2138" d="M53 1540h291l303 -1196l311 1159h275l311 -1159l303 1196h238l-422 -1540h-279l-315 1171l-315 -1171h-279zM662 1980h331l211 -272h-231z" />
<glyph unicode="&#x1e81;" horiz-adv-x="1849" d="M88 1126h283l213 -823l229 799h266l230 -799l213 823h237l-323 -1126h-279l-233 811l-234 -811h-278zM578 1597h294l177 -307h-209z" />
<glyph unicode="&#x1e82;" horiz-adv-x="2138" d="M53 1540h291l303 -1196l311 1159h275l311 -1159l303 1196h238l-422 -1540h-279l-315 1171l-315 -1171h-279zM983 1708l211 272h332l-312 -272h-231z" />
<glyph unicode="&#x1e83;" horiz-adv-x="1849" d="M88 1126h283l213 -823l229 799h266l230 -799l213 823h237l-323 -1126h-279l-233 811l-234 -811h-278zM844 1290l176 307h295l-262 -307h-209z" />
<glyph unicode="&#x1ef2;" horiz-adv-x="1355" d="M20 1540h320l369 -692l368 692h258l-520 -934v-606h-274v602zM268 1980h332l211 -272h-231z" />
<glyph unicode="&#x1ef3;" horiz-adv-x="1249" d="M68 1126h303l278 -798l287 798h246l-594 -1527h-271l185 421zM279 1597h294l177 -307h-209z" />
<glyph unicode="&#x2000;" horiz-adv-x="1034" />
<glyph unicode="&#x2001;" horiz-adv-x="2068" />
<glyph unicode="&#x2002;" horiz-adv-x="1034" />
<glyph unicode="&#x2003;" horiz-adv-x="2068" />
<glyph unicode="&#x2004;" horiz-adv-x="689" />
<glyph unicode="&#x2005;" horiz-adv-x="517" />
<glyph unicode="&#x2006;" horiz-adv-x="344" />
<glyph unicode="&#x2007;" horiz-adv-x="1228" />
<glyph unicode="&#x2008;" horiz-adv-x="258" />
<glyph unicode="&#x2009;" horiz-adv-x="413" />
<glyph unicode="&#x200a;" horiz-adv-x="114" />
<glyph unicode="&#x2010;" horiz-adv-x="905" d="M123 537v208h659v-208h-659z" />
<glyph unicode="&#x2011;" horiz-adv-x="905" d="M123 537v208h659v-208h-659z" />
<glyph unicode="&#x2012;" horiz-adv-x="1228" d="M117 477v201h995v-201h-995z" />
<glyph unicode="&#x2013;" horiz-adv-x="1376" d="M156 543v196h1065v-196h-1065z" />
<glyph unicode="&#x2014;" horiz-adv-x="2154" d="M156 543v196h1843v-196h-1843z" />
<glyph unicode="&#x2018;" horiz-adv-x="618" d="M119 1047l147 550h191l-82 -550h-256z" />
<glyph unicode="&#x2019;" horiz-adv-x="624" d="M143 1047l82 550h256l-147 -550h-191z" />
<glyph unicode="&#x201a;" horiz-adv-x="569" d="M111 -252l82 551h256l-148 -551h-190z" />
<glyph unicode="&#x201c;" horiz-adv-x="983" d="M123 1047l143 550h180l-81 -550h-242zM496 1047l143 550h180l-82 -550h-241z" />
<glyph unicode="&#x201d;" horiz-adv-x="983" d="M143 1047l82 550h242l-143 -550h-181zM516 1047l82 550h242l-144 -550h-180z" />
<glyph unicode="&#x201e;" horiz-adv-x="929" d="M111 -252l82 551h241l-143 -551h-180zM483 -252l82 551h242l-143 -551h-181z" />
<glyph unicode="&#x2020;" horiz-adv-x="1093" d="M86 913v199h338v297h246v-297h338v-199h-338v-913h-246v913h-338z" />
<glyph unicode="&#x2021;" horiz-adv-x="1091" d="M135 297v199h287v417h-287v199h287v297h246v-297h288v-199h-288v-417h288v-199h-288v-297h-246v297h-287z" />
<glyph unicode="&#x2022;" horiz-adv-x="626" d="M111 459v372h372v-372h-372z" />
<glyph unicode="&#x2026;" horiz-adv-x="1884" d="M225 0v254h258v-254h-258zM813 0v254h258v-254h-258zM1401 0v254h258v-254h-258z" />
<glyph unicode="&#x202f;" horiz-adv-x="413" />
<glyph unicode="&#x2030;" horiz-adv-x="2588" d="M115 1077q0 159 103.5 259t260.5 100t261 -100t104 -259t-104 -258.5t-261 -99.5t-260.5 99.5t-103.5 258.5zM209 0v14l639 742l516 653h252v-14l-641 -742l-516 -653h-250zM313 1077q0 -88 47 -141t121 -53q73 0 118.5 53t45.5 141q0 89 -46 142t-120 53 q-73 0 -119.5 -53.5t-46.5 -141.5zM979 332q0 159 103.5 258.5t260.5 99.5t261 -99.5t104 -258.5t-104 -259t-261 -100t-260.5 100t-103.5 259zM1178 332q0 -88 46 -141.5t119 -53.5t119.5 53.5t46.5 141.5t-46.5 141t-119.5 53t-119 -53t-46 -141zM1798 332 q0 159 104.5 258.5t262.5 99.5q156 0 260 -99.5t104 -258.5t-104.5 -259t-261.5 -100q-156 0 -260.5 100t-104.5 259zM1999 332q0 -89 46 -142t120 -53q73 0 118.5 53.5t45.5 141.5t-46 141t-120 53q-73 0 -118.5 -53t-45.5 -141z" />
<glyph unicode="&#x2039;" horiz-adv-x="741" d="M115 641l262 440h250l-279 -436l279 -444h-250z" />
<glyph unicode="&#x203a;" horiz-adv-x="741" d="M115 201l278 436l-278 444h250l262 -440l-262 -440h-250z" />
<glyph unicode="&#x2044;" horiz-adv-x="438" d="M-608 -172l762 930l649 839h244v-16l-762 -930l-650 -839h-243v16z" />
<glyph unicode="&#x205f;" horiz-adv-x="517" />
<glyph unicode="&#x20ac;" horiz-adv-x="1359" d="M78 446v183h166q-2 25 -2 76q0 50 2 75h-166v183h198q60 212 225.5 336t432.5 124q78 0 152.5 -10.5t109.5 -21.5l35 -11v-206h-17q-14 6 -38.5 14.5t-94 22.5t-133.5 14q-149 0 -247 -69.5t-144 -192.5h557l-41 -183h-555q-2 -23 -2 -69q0 -28 4 -82h516l-41 -183h-434 q46 -123 143.5 -192.5t245.5 -69.5q63 0 129 13t101 26l34 13h17v-207q-14 -5 -38.5 -12t-102.5 -19t-156 -12q-267 0 -432.5 124t-225.5 336h-198z" />
<glyph unicode="&#x2122;" horiz-adv-x="1685" d="M45 1386v154h561v-154h-184v-514h-193v514h-184zM735 872v668h262l164 -422l164 422h258v-668h-184v480l-172 -437h-156l-172 437v-480h-164z" />
<glyph unicode="&#x25fc;" horiz-adv-x="1126" d="M0 0v1126h1126v-1126h-1126z" />
</font>
</defs>
</svg>
