<svg xmlns="http://www.w3.org/2000/svg" width="160" height="32" viewBox="0 0 160 32"><defs><linearGradient id="a" x1=".035%" x2="100.035%" y1="50.015%" y2="50.015%"><stop offset="0%" stop-color="#329DD8"/><stop offset="100%" stop-color="#42E3D0"/></linearGradient></defs><g fill="none"><path fill="#42E3D0" d="M128.848 26c.352 0 .657.065.916.196s.456.312.592.544c.136.232.204.497.204.796 0 .299-.076.553-.228.764-.152.211-.359.364-.62.46.32.085.571.253.752.504.181.251.272.539.272.864 0 .299-.073.564-.22.796-.147.232-.353.415-.62.548-.267.133-.571.2-.912.2h-1.984v-5.672h1.848zm-.088 2.48c.315 0 .561-.083.74-.248.179-.165.268-.384.268-.656s-.092-.488-.276-.648c-.184-.16-.439-.24-.764-.24h-.944v1.792h.976zm.112 2.504c.32 0 .577-.081.772-.244.195-.163.292-.383.292-.66 0-.283-.088-.508-.264-.676-.176-.168-.432-.252-.768-.252h-1.12v1.832h1.088zm7.388.688v-5.672h3.448v.728h-2.664v1.744h2.416v.736h-2.416v1.736h2.664v.728h-3.448zm11.132-4.944v4.944h-.784v-4.944h-1.896v-.728h4.576v.728h-1.896zm9.932 3.36h-2.512l-.6 1.584h-.84l2.256-5.672h.904l2.256 5.672h-.848l-.616-1.584zm-2.232-.728h1.952l-.984-2.544-.968 2.544z"/><path fill="#FFF" fill-rule="nonzero" d="M45.302 25.044l2.877-6.348-5.179-10.659h3.692l3.249 7.136 3.001-7.136h3.515l-7.658 17.007h-3.497zm10.721-8.127c0-.549.097-1.027.283-1.452.186-.425.452-.788.779-1.107.328-.31.717-.558 1.151-.744.434-.186.912-.31 1.425-.398l3.001-.443c.345-.053.584-.151.717-.31s.195-.345.195-.558c0-.434-.168-.806-.505-1.115-.336-.31-.859-.469-1.549-.469-.726 0-1.284.195-1.673.593-.39.398-.611.859-.655 1.39l-2.921-.62c.053-.478.195-.956.443-1.434s.584-.912 1.018-1.293c.434-.381.956-.691 1.585-.93.629-.239 1.355-.363 2.187-.363.956 0 1.779.124 2.452.381s1.231.593 1.647 1.018c.416.425.726.912.921 1.478.186.558.283 1.151.283 1.762v6.002c0 .328.018.682.053 1.054s.062.664.097.876h-3.028c-.035-.168-.062-.39-.089-.682-.027-.292-.035-.549-.035-.779-.31.478-.761.903-1.355 1.266-.584.363-1.337.549-2.24.549-.646 0-1.231-.106-1.744-.31-.522-.204-.965-.478-1.328-.814-.363-.336-.637-.726-.832-1.169-.186-.443-.283-.903-.283-1.381zm4.878 1.213c.345 0 .682-.044 1-.133.319-.089.611-.248.859-.469.248-.221.443-.513.593-.868.151-.354.221-.806.221-1.355v-.549l-2.753.425c-.434.062-.788.221-1.08.46-.292.239-.434.602-.434 1.08 0 .363.133.691.398.983.274.283.673.425 1.195.425zm7.897 2.107v-17.945h3.249v7.091c.283-.434.744-.814 1.372-1.151.637-.336 1.408-.505 2.319-.505.894 0 1.682.159 2.381.487.691.319 1.284.77 1.771 1.337.487.567.859 1.239 1.107 2.018.248.779.372 1.62.372 2.532 0 .93-.133 1.779-.407 2.567-.274.788-.664 1.47-1.169 2.045s-1.115 1.018-1.824 1.337c-.708.319-1.496.487-2.355.487-.841 0-1.576-.168-2.196-.496-.62-.328-1.098-.761-1.425-1.293v1.487h-3.196zm9.269-6.126c0-1.124-.292-1.983-.876-2.567-.584-.584-1.301-.876-2.142-.876-.416 0-.806.071-1.177.221-.372.151-.691.372-.965.655-.274.283-.496.646-.655 1.08-.168.434-.248.93-.248 1.487 0 .549.08 1.036.248 1.461.168.434.381.797.655 1.089.274.301.593.522.965.682.372.159.761.239 1.177.239.841 0 1.558-.301 2.142-.894.584-.593.876-1.452.876-2.576zm3.833 2.806c0-.549.097-1.027.283-1.452.186-.425.452-.788.779-1.107.328-.31.717-.558 1.151-.744.434-.186.912-.31 1.425-.398l3.001-.443c.345-.053.584-.151.717-.31s.195-.345.195-.558c0-.434-.168-.806-.505-1.115-.336-.31-.859-.469-1.549-.469-.726 0-1.284.195-1.673.593-.39.398-.611.859-.655 1.39l-2.921-.62c.053-.478.195-.956.443-1.434s.584-.912 1.018-1.293c.434-.381.956-.691 1.585-.93.629-.239 1.355-.363 2.178-.363.956 0 1.779.124 2.452.381.682.257 1.231.593 1.647 1.018.416.425.726.912.921 1.478.186.558.283 1.151.283 1.762v6.002c0 .328.018.682.053 1.054s.062.664.097.876h-3.028c-.035-.168-.062-.39-.089-.682-.027-.292-.035-.549-.035-.779-.31.478-.761.903-1.355 1.266-.584.363-1.337.549-2.24.549-.646 0-1.231-.106-1.744-.31-.513-.204-.965-.478-1.328-.814-.363-.336-.637-.726-.832-1.169-.186-.443-.274-.903-.274-1.381zm4.878 1.213c.345 0 .682-.044 1-.133.319-.089.611-.248.859-.469.248-.221.443-.513.593-.868.151-.354.221-.806.221-1.355v-.549l-2.753.425c-.434.062-.788.221-1.08.46-.292.239-.434.602-.434 1.08 0 .363.133.691.398.983.274.283.664.425 1.195.425zm11.19 2.107h-3.293v-12.199h3.196v1.514c.381-.629.894-1.089 1.549-1.39.655-.301 1.31-.443 1.974-.443.761 0 1.416.124 1.974.381s1.009.602 1.372 1.027c.363.434.629.938.806 1.54.177.593.257 1.222.257 1.886v7.684h-3.293v-7.118c0-.691-.177-1.275-.531-1.735-.354-.46-.93-.691-1.726-.691-.726 0-1.293.248-1.682.735-.398.487-.593 1.089-.593 1.797v7.012h-.009zm15.333-9.517c-.434 0-.832.071-1.204.221-.372.151-.699.372-.983.655-.283.292-.505.646-.673 1.08-.168.434-.248.921-.248 1.461 0 .549.08 1.036.248 1.461.168.425.39.797.682 1.089.292.301.62.522.992.673.372.151.77.221 1.204.221.416 0 .779-.062 1.107-.186.328-.124.602-.283.832-.487.23-.195.416-.425.558-.673.142-.248.248-.487.31-.717l2.904.965c-.133.513-.354 1.009-.655 1.496-.31.487-.699.93-1.177 1.31-.478.39-1.045.699-1.682.938s-1.372.363-2.178.363c-.894 0-1.735-.159-2.514-.487-.788-.319-1.47-.77-2.045-1.355-.575-.575-1.036-1.257-1.363-2.045-.328-.788-.496-1.647-.496-2.594 0-.938.159-1.806.487-2.603.328-.797.77-1.478 1.337-2.045s1.239-1.018 2.01-1.337c.77-.319 1.602-.487 2.488-.487.823 0 1.567.124 2.222.363s1.222.549 1.7.93.868.814 1.169 1.31c.301.496.513 1 .646 1.514l-2.948.992c-.151-.513-.434-.983-.859-1.416-.443-.398-1.062-.611-1.868-.611zm6.826 9.517v-12.199h3.293v12.199h-3.293zm17.113-2.204c0 .416.009.823.027 1.231.018.407.044.735.071.983h-3.152c-.035-.133-.062-.328-.089-.593-.027-.266-.035-.54-.035-.814-.283.478-.717.885-1.301 1.213-.584.328-1.293.496-2.116.496-.876 0-1.673-.159-2.408-.487-.726-.319-1.355-.77-1.868-1.337-.513-.567-.93-1.248-1.231-2.036-.301-.788-.443-1.638-.443-2.567 0-.894.142-1.726.434-2.505.292-.779.691-1.452 1.204-2.018.513-.567 1.124-1.018 1.85-1.355.717-.328 1.505-.496 2.364-.496.531 0 .992.053 1.372.151.39.097.726.221 1 .372s.505.31.682.487c.177.177.301.345.381.505v-6.967h3.249v15.741h.009zm-9.216-3.922c0 1.089.283 1.939.859 2.55.567.611 1.293.921 2.169.921.841 0 1.549-.31 2.134-.921.575-.611.868-1.47.868-2.576 0-1.089-.292-1.93-.868-2.514-.575-.584-1.293-.876-2.134-.876s-1.558.301-2.142.894c-.584.593-.885 1.434-.885 2.523zm11.456 6.126v-12.199h3.293v12.199h-3.293zm-.39-16.183c0-.575.195-1.062.593-1.461.398-.398.876-.593 1.434-.593.575 0 1.062.195 1.452.593.39.398.584.885.584 1.461 0 .549-.195 1.018-.584 1.416-.39.398-.868.593-1.452.593-.558 0-1.045-.195-1.434-.593-.398-.407-.593-.876-.593-1.416zm5.037 16.183v-2.904l5.772-6.445h-5.622v-2.851h9.845v2.753l-5.949 6.569h6.047v2.877h-10.092zm11.438 0v-12.199h3.293v12.199h-3.293zm-.398-16.183c0-.575.195-1.062.593-1.461.398-.398.876-.593 1.434-.593.575 0 1.062.195 1.452.593.39.398.584.885.584 1.461 0 .549-.195 1.018-.584 1.416-.39.398-.868.593-1.452.593-.558 0-1.045-.195-1.434-.593-.39-.407-.593-.876-.593-1.416z"/><path fill="url(#a)" fill-rule="nonzero" d="M16.644 5.144h5.692c2.851 0 5.232.673 7.144 2.027 2.178 1.54 3.258 3.683 3.258 6.41 0 3.922-1.859 6.587-5.569 7.994-1.47.54-3.169.814-5.082.814h-3.612l3.169 5.312c.425 0 1.762-.035 1.806 0 2.01-.089 3.975-.487 5.631-1.115 2.753-1.054 4.94-2.744 6.569-5.055 1.629-2.311 2.443-4.958 2.443-7.941 0-4.267-1.602-7.684-4.798-10.252-2.975-2.381-5.71-2.886-10.96-2.895"/><path fill="#42E3D0" fill-rule="nonzero" d="M0 0h5.763c.089 0 .177.044.221.124l17.715 27.586h-6.374l-17.325-27.71zm25.514.549c-.009.035-2.798 4.028-8.384 11.969-.089.124-.248.151-.372.062l-.071-.071-2.966-4.488c-.053-.089-.062-.204 0-.283l4.612-7.339c.053-.08.142-.124.23-.124 4.639.142 6.958.239 6.95.274z"/></g></svg>