<svg width="21" height="16" viewBox="0 0 21 16" xmlns="http://www.w3.org/2000/svg"><path d="M19.031 0c1.087 0 1.969.896 1.969 2v12c0 1.104-.882 2-1.969 2h-17.063c-1.087 0-1.969-.896-1.969-2v-12c0-1.104.882-2 1.969-2h17.063zm-1.625 2h-13.813c-.88 0-1.594.672-1.594 1.5v9c0 .828.714 1.5 1.594 1.5h13.813c.88 0 1.594-.672 1.594-1.5v-9c0-.828-.714-1.5-1.594-1.5zm-12.003 2.318l-2.328-2.328 1.414-1.414 3.432 3.432c.831.116 1.605.449 2.168.996.086.082.103.131.041.234l-.357.622 1.142 1.142c.674-3.237 5.067-3.865 6.988-1.997.086.082.103.131.041.234l-.718 1.251c-.078.127-.254.164-.373.07-1.673-1.313-3.88-.611-3.88 1.28 0 1.969 2.092 2.892 3.782 1.337.115-.103.291-.086.377.037l.8 1.136c.07.098.062.23-.021.316-.583.62-1.356 1.004-2.178 1.156l2.191 2.191-1.414 1.414-9.53-9.53c-1.011.089-1.821.798-1.821 1.944.004 1.969 2.096 2.892 3.786 1.337.115-.103.291-.086.377.037l.8 1.136c.07.098.062.23-.021.316-2.198 2.33-7.087 1.317-7.087-2.785 0-1.831 1.05-3.013 2.389-3.561z" fill="#6d7080" fill-rule="nonzero"/></svg>