<svg xmlns="http://www.w3.org/2000/svg" width="39" height="28" viewBox="0 0 39 28">
  <defs>
    <linearGradient id="linearGradient-1" x1=".035%" x2="100.035%" y1="50.015%" y2="50.015%">
      <stop offset="0%" stop-color="#329DD8"/>
      <stop offset="100%" stop-color="#42E3D0"/>
    </linearGradient>
  </defs>
  <g id="Artboard" fill="none" fill-rule="evenodd">
    <path id="Shape" fill="url(#linearGradient-1)" fill-rule="nonzero" d="M16.6436526,5.14359688 L22.3361359,5.14359688 C25.186804,5.14359688 27.5682628,5.81642539 29.4805122,7.17093541 C31.6583519,8.71135857 32.7384187,10.8537862 32.7384187,13.5805122 C32.7384187,17.5023942 30.8792873,20.1671492 27.1698775,21.5747773 C25.7002784,22.1148107 24.0005011,22.3892539 22.0882517,22.3892539 L18.4762249,22.3892539 L21.6456013,27.7010579 C22.0705457,27.7010579 23.4073497,27.6656459 23.4516147,27.7010579 C25.4612472,27.6125278 27.4266147,27.2141425 29.0821269,26.5855791 C31.835412,25.5320713 34.0221047,23.841147 35.6510579,21.5305122 C37.2800111,19.2198775 38.0944878,16.5728285 38.0944878,13.5893653 C38.0944878,9.32221604 36.4920935,5.90495546 33.2961581,3.33758352 C30.3215479,0.956124722 27.5859688,0.451503341 22.3361359,0.442650334"/>
    <path id="Shape_1_" fill="#42E3D0" fill-rule="nonzero" d="M0,0 L5.76330735,0 C5.85183742,0 5.94036748,0.0442650334 5.98463252,0.123942094 L23.6994989,27.7099109 L17.3253341,27.7099109 L0,0 Z M25.5143653,0.548886414 C25.5055122,0.584298441 22.7168151,4.57700445 17.1305679,12.5181514 C17.0420379,12.6420935 16.8826837,12.6686526 16.7587416,12.5801225 C16.7321826,12.5624165 16.7056236,12.5358575 16.6879176,12.5092984 L13.7221604,8.02082405 C13.6690423,7.93229399 13.6601893,7.8172049 13.7221604,7.73752784 L18.3345768,0.398385301 C18.3876949,0.318708241 18.4762249,0.274443207 18.564755,0.274443207 C23.2037305,0.416091314 25.5232183,0.513474388 25.5143653,0.548886414 Z"/>
  </g>
</svg>
