<svg width="49" height="64" viewBox="0 0 49 64" fill="none" xmlns="http://www.w3.org/2000/svg">
<path fill-rule="evenodd" clip-rule="evenodd" d="M42.5771 59.6079H46.3402C47.5527 59.6079 48.5358 60.5912 48.5355 61.8042C48.5355 63.0174 47.5525 64 46.3399 64H2.19582C0.983269 64 0 63.0172 0 61.8042C0 60.5914 0.983269 59.6082 2.19582 59.6082H5.95888V52.8632C5.95888 46.0391 9.7034 39.7665 16.5035 35.2007C17.3495 34.6325 17.8751 33.4068 17.8751 31.9999C17.8751 30.5932 17.3495 29.3677 16.504 28.7995C9.7034 24.2337 5.95888 17.9611 5.95888 11.137V4.39163H2.19582C0.983269 4.39163 0 3.40858 0 2.1956C0 0.982838 0.983269 0 2.19582 0H46.3402C47.5527 0 48.5358 0.982838 48.5358 2.19582C48.5358 3.4088 47.5527 4.39185 46.3402 4.39185H42.5775V11.1368C42.5771 17.9609 38.8321 24.2335 32.0324 28.7993C31.1864 29.3675 30.6609 30.593 30.6609 31.9997C30.6609 33.4064 31.1864 34.6323 32.032 35.2001C38.8321 39.7663 42.5771 46.0389 42.5771 52.863V59.6079ZM18.9517 38.847C15.7392 41.0036 10.3507 45.6926 10.3507 52.863V59.6079H38.1852V52.863C38.1848 45.6926 32.7963 41.0036 29.5838 38.847C27.5081 37.4532 26.2686 34.8939 26.2686 31.9999C26.2686 29.1065 27.5081 26.5468 29.5843 25.1528C32.7963 22.9966 38.1848 18.3076 38.1848 11.1373L38.1852 4.39185H10.3507V11.1373C10.3507 18.3076 15.7392 22.9966 18.9517 25.1532C21.0275 26.5466 22.267 29.1063 22.267 31.9999C22.267 34.8937 21.0275 37.4535 18.9517 38.847Z" fill="#FFCB30"/>
</svg>
